<svg width="121" height="77" viewBox="0 0 121 77" fill="none" xmlns="http://www.w3.org/2000/svg">
<path d="M66.2559 19.75C68.3944 18.6347 71.7166 18.6717 73.7627 19.8614L77.4522 22.0049L77.6426 22.1221C78.5645 22.7159 79.0264 23.4691 79.0273 24.2227L79.0439 29.6719C79.0408 28.868 78.5156 28.065 77.4668 27.4551L77.4658 27.4541L73.7773 25.3116C71.7312 24.1229 68.4089 24.0856 66.2705 25.2002L66.0674 25.3116L32.669 44.5918L32.6699 44.5928C31.6001 45.2107 31.0655 46.0269 31.0674 46.8418L31.0527 41.3926C31.0507 40.5778 31.5847 39.7616 32.6543 39.1436L66.0527 19.8614L66.2559 19.75Z" fill="#292929"/>
<path d="M32.6545 40.1432C30.5285 41.3702 30.5175 43.3812 32.6295 44.6092L36.3195 46.7532C38.4315 47.9802 41.9035 47.9802 44.0295 46.7532L77.4275 27.4712C79.5535 26.2442 79.5645 24.2332 77.4525 23.0052L73.7635 20.8612C71.6515 19.6342 68.1795 19.6342 66.0535 20.8612L32.6545 40.1432Z" fill="#CCCCCC"/>
<path d="M65.1075 15.3262C67.2505 14.0892 70.7225 14.0892 72.8515 15.3262L88.1105 24.1932L39.8485 52.0572L24.5895 43.1892C22.4605 41.9522 22.4715 39.9412 24.6145 38.7042L65.1075 15.3262ZM36.3185 45.7532C38.4305 46.9802 41.9025 46.9802 44.0285 45.7532L77.4265 26.4712C79.5525 25.2442 79.5635 23.2332 77.4515 22.0052L73.7615 19.8612C71.6495 18.6342 68.1775 18.6342 66.0515 19.8612L32.6535 39.1432C30.5275 40.3702 30.5165 42.3812 32.6285 43.6092L36.3185 45.7532Z" fill="#4D4D4D"/>
<path d="M72.8516 15.3262L88.1106 24.1932L39.8486 52.0572L70.7816 70.0332C72.9186 71.2752 76.3906 71.2752 78.5336 70.0382L119.027 46.6602C121.17 45.4232 121.181 43.4122 119.044 42.1702L72.8516 15.3262Z" fill="#999999"/>
<path d="M24.5904 43.1901L39.8494 52.0581L70.7824 70.0341C72.9194 71.2761 76.3914 71.2761 78.5344 70.0391L119.027 46.6611C120.104 46.0391 120.643 45.2211 120.641 44.4051L120.656 49.8551C120.658 50.6721 120.12 51.4901 119.042 52.1121L78.5504 75.4901C76.4074 76.7271 72.9354 76.7271 70.7984 75.4851L39.8654 57.5091L24.6064 48.6421C23.5484 48.0271 23.0194 47.2221 23.0174 46.4151L23.0024 40.9651C23.0034 41.7701 23.5324 42.5751 24.5904 43.1901Z" fill="#666666"/>
<path d="M97.0605 34.6194L91.0615 38.0094L92.9085 39.1064L98.9075 35.7154L97.0605 34.6194Z" fill="#FDFDFD"/>
<path d="M86.0255 28.0503C87.9735 26.9493 91.1565 26.9783 93.0715 28.1153L113.015 39.9503C114.938 41.0923 114.903 42.9303 112.955 44.0313L106.922 47.4413C104.974 48.5423 101.8 48.5183 99.8765 47.3773L79.9335 35.5413C78.0185 34.4053 78.0455 32.5613 79.9935 31.4603L86.0255 28.0503ZM95.8955 40.8783L101.894 37.4873L100.046 36.3913L94.0475 39.7823L95.8955 40.8783ZM92.9085 39.1063L98.9075 35.7153L97.0595 34.6193L91.0605 38.0093L92.9085 39.1063Z" fill="#474747"/>
<path d="M101.894 37.4944L100.046 36.3984L94.0474 39.7894L95.8954 40.8854L101.894 37.4944Z" fill="#FDFDFD"/>
<path d="M78.5135 33.5022C78.5085 34.2382 78.9805 34.9772 79.9325 35.5412L99.8755 47.3772C101.8 48.5182 104.974 48.5432 106.922 47.4412L112.955 44.0312C113.936 43.4762 114.433 42.7342 114.437 41.9892L114.423 44.1692C114.418 44.9152 113.922 45.6562 112.941 46.2112L106.908 49.6212C104.96 50.7222 101.786 50.6982 99.8615 49.5572L79.9185 37.7212C78.9675 37.1562 78.4955 36.4172 78.4995 35.6822L78.5135 33.5022Z" fill="#282828"/>
<path d="M56.0332 45.0412C57.9902 43.9352 61.1642 43.9692 63.0792 45.1062L69.0102 48.6262C70.9252 49.7632 70.9062 51.6012 68.9502 52.7072L62.9252 56.1122C60.9682 57.2182 57.7862 57.1892 55.8712 56.0522L49.9402 52.5322C48.0252 51.3952 48.0522 49.5522 50.0092 48.4462L56.0332 45.0412ZM57.1302 53.1602L59.4732 51.8362L61.7592 53.1932L63.9642 51.9462L61.6782 50.5892L63.9872 49.2842L61.8192 47.9972L59.5102 49.3022L57.2242 47.9452L55.0182 49.1922L57.3042 50.5492L54.9612 51.8732L57.1302 53.1602Z" fill="#FDFDFD"/>
<path d="M55.0194 49.1923L57.3054 50.5493L54.9624 51.8733L57.1304 53.1603L59.4734 51.8363L61.7594 53.1923L63.9654 51.9463L61.6794 50.5893L63.9874 49.2843L61.8194 47.9983L59.5114 49.3023L57.2244 47.9453L55.0194 49.1923Z" fill="#474747"/>
<path d="M48.5223 50.4941C48.5173 51.2301 48.9893 51.9671 49.9403 52.5311L55.8713 56.0511C57.7863 57.1871 60.9683 57.2171 62.9253 56.1111L68.9503 52.7061C69.9343 52.1501 70.4283 51.4091 70.4323 50.6651L70.4183 52.8452C70.4133 53.5892 69.9193 54.3302 68.9363 54.8862L62.9113 58.2912C60.9543 59.3972 57.7723 59.3681 55.8573 58.2311L49.9263 54.7121C48.9763 54.1481 48.5043 53.4101 48.5083 52.6741L48.5223 50.4941Z" fill="#BFBFBF"/>
<path d="M70.1689 43.2091L72.3369 44.4961L78.9969 40.7321L76.8289 39.4451L70.1689 43.2091Z" fill="#474747"/>
<path d="M71.1367 36.4351C73.0937 35.3291 76.2667 35.3631 78.1827 36.4991L84.1137 40.0191C86.0287 41.1551 86.0097 42.9941 84.0537 44.1001L78.0287 47.5051C76.0717 48.6111 72.8977 48.5771 70.9827 47.4401L65.0517 43.9211C63.1367 42.7841 63.1557 40.9461 65.1117 39.8401L71.1367 36.4351ZM72.3367 44.4961L78.9967 40.7321L76.8287 39.4451L70.1687 43.2091L72.3367 44.4961Z" fill="#FDFDFD"/>
<path d="M63.6307 41.8811C63.6257 42.6171 64.0997 43.3561 65.0527 43.9211L70.9837 47.4401C72.8987 48.5771 76.0727 48.6111 78.0297 47.5051L84.0547 44.1001C85.0377 43.5441 85.5327 42.8031 85.5367 42.0591L85.5227 44.2391C85.5177 44.9831 85.0247 45.7241 84.0407 46.2801L78.0157 49.6851C76.0587 50.7911 72.8857 50.7571 70.9707 49.6201L65.0397 46.1011C64.0877 45.5361 63.6127 44.7971 63.6177 44.0611L63.6307 41.8811Z" fill="#BFBFBF"/>
<path d="M84.9813 47.828C84.4153 48.148 84.4063 48.68 84.9643 49.011C85.5213 49.342 86.4313 49.345 86.9983 49.025C87.5643 48.705 87.5813 48.178 87.0243 47.847C86.4673 47.516 85.5483 47.508 84.9813 47.828Z" fill="#474747"/>
<path d="M84.4521 51.3721L86.6292 52.6642L93.2891 48.9001L91.1121 47.6082L84.4521 51.3721Z" fill="#474747"/>
<path d="M90.7434 51.247C90.1774 51.567 90.1604 52.094 90.7174 52.425C91.2744 52.756 92.1934 52.7641 92.7594 52.4441C93.3254 52.1241 93.3334 51.5921 92.7774 51.2611C92.2204 50.9311 91.3104 50.927 90.7434 51.247Z" fill="#474747"/>
<path d="M85.4291 44.6031C87.3861 43.4971 90.5511 43.5261 92.4751 44.6681L98.3981 48.1821C100.321 49.3241 100.294 51.1571 98.3381 52.2631L92.3131 55.6681C90.3561 56.7741 87.1911 56.7451 85.2671 55.6031L79.3451 52.0881C77.4211 50.9471 77.4491 49.1131 79.4051 48.0071L85.4291 44.6031ZM86.6291 52.6641L93.2891 48.9001L91.1121 47.6081L84.4521 51.3721L86.6291 52.6641ZM92.7601 52.4441C93.3261 52.1241 93.3341 51.5921 92.7781 51.2611C92.2211 50.9311 91.3111 50.9271 90.7441 51.2471C90.1781 51.5671 90.1611 52.0941 90.7181 52.4251C91.2741 52.7561 92.1931 52.7641 92.7601 52.4441ZM84.9811 47.8281C84.4151 48.1481 84.4071 48.6801 84.9641 49.0111C85.5211 49.3421 86.4311 49.3451 86.9981 49.0251C87.5641 48.7051 87.5811 48.1781 87.0241 47.8471C86.4671 47.5161 85.5481 47.5081 84.9811 47.8281Z" fill="#FDFDFD"/>
<path d="M77.9193 50.05C77.9143 50.784 78.3893 51.5221 79.3443 52.0891L85.2663 55.604C87.1893 56.746 90.3553 56.7751 92.3123 55.6691L98.3373 52.2641C99.3223 51.7071 99.8183 50.9661 99.8223 50.2221L99.8083 52.4021C99.8033 53.1461 99.3073 53.8871 98.3233 54.4431L92.2983 57.8481C90.3413 58.9541 87.1763 58.9251 85.2523 57.7841L79.3303 54.2691C78.3753 53.7021 77.9003 52.9641 77.9053 52.2301L77.9193 50.05Z" fill="#BFBFBF"/>
<path d="M71.9974 56.0693L71.9834 58.2493L75.0814 58.2773L75.0944 56.0973L71.9974 56.0693Z" fill="#9B9B9B"/>
<path d="M70.0542 53.3353C72.0112 52.2293 75.1762 52.2583 77.1002 53.4003L83.0222 56.9153C84.9462 58.0563 84.9182 59.8903 82.9622 60.9963L76.9372 64.4013C74.9812 65.5073 71.8062 65.4833 69.8832 64.3413L63.9602 60.8263C62.0362 59.6853 62.0722 57.8463 64.0292 56.7403L70.0542 53.3353ZM71.9152 61.6383L75.0122 61.6663L75.0402 59.7833L78.2822 59.8083L78.3082 58.0143L75.0662 57.9893L75.0942 56.0963L71.9972 56.0683L71.9692 57.9603L68.6852 57.9303L68.6582 59.7243L71.9422 59.7543L71.9152 61.6383Z" fill="#FDFDFD"/>
<path d="M68.6842 57.9313L68.6582 59.7253L71.9422 59.7553L71.9152 61.6383L75.0122 61.6663L75.0402 59.7843L78.2822 59.8083L78.3082 58.0153L75.0662 57.9903L75.0942 56.0973L71.9972 56.0693L71.9692 57.9613L68.6842 57.9313Z" fill="#474747"/>
<path d="M62.5404 58.7893C62.5354 59.5233 63.0074 60.2603 63.9614 60.8263L69.8844 64.3413C71.8074 65.4833 74.9814 65.5073 76.9384 64.4013L82.9634 60.9963C83.9474 60.4393 84.4444 59.6993 84.4484 58.9543L84.4344 61.1343C84.4294 61.8783 83.9334 62.6193 82.9494 63.1763L76.9244 66.5813C74.9674 67.6873 71.7934 67.6633 69.8704 66.5213L63.9484 63.0063C62.9954 62.4403 62.5224 61.7033 62.5274 60.9693L62.5404 58.7893Z" fill="#BFBFBF"/>
<path d="M0.5 28.3984L25.3628 14.4213L5.5 22.3984C3.03424 23.8565 1.97853 25.2143 0.5 28.3984Z" fill="#ADADAD"/>
<mask id="mask0_33_4626" style="mask-type:luminance" maskUnits="userSpaceOnUse" x="5" y="0" width="61" height="40">
<path d="M65.4148 17.509L28.0522 39.085C25.9295 29.2436 12.7293 19.2518 5.5 22.3984L22.9242 12.1303L41.8562 1.1903L41.9655 1.12497L41.9975 1.11429C42.1402 1.03829 42.7922 0.732948 43.7949 0.275616L43.8255 0.264938C51.1855 -1.74839 63.3775 8.07028 65.4148 17.509Z" fill="white"/>
</mask>
<g mask="url(#mask0_33_4626)">
<path d="M65.4148 17.509L28.0522 39.085C25.9295 29.2436 13 19.3984 5.5 22.3984L22.9242 12.1303L41.8562 1.1903L41.9655 1.12497L41.9975 1.11429C42.1402 1.03829 42.7922 0.732948 43.7949 0.275616L43.8255 0.264938C51.1855 -1.74839 63.3775 8.07028 65.4148 17.509Z" fill="url(#paint0_linear_33_4626)"/>
</g>
<path d="M19.4479 20.7932C18.9585 20.3692 18.9932 19.7653 19.5266 19.4439L45 4.89844C45.5333 4.57577 46.3613 4.65845 46.8507 5.08245C47.34 5.50645 47.3053 6.11044 46.772 6.43177L21.2972 20.9786C20.7639 21.2999 19.9359 21.2186 19.4479 20.7932Z" fill="#BFBFBF"/>
<path d="M27.832 27.8156C27.344 27.393 27.3787 26.7876 27.912 26.4649L55 11.3984C55.5333 11.0771 56.3613 11.1598 56.8507 11.5838C57.34 12.0078 57.3053 12.6118 56.772 12.9344L29.6827 28.0009C29.1494 28.3223 28.3213 28.2396 27.832 27.8156Z" fill="#BFBFBF"/>
<path d="M30.5084 25.1706C30.5492 25.1486 30.5989 25.1389 30.6572 25.1409C30.7154 25.1429 30.7641 25.1562 30.8033 25.1807L31.3714 25.5351C31.4108 25.5596 31.4299 25.5888 31.4286 25.6224C31.4274 25.656 31.4065 25.684 31.3655 25.7056L28.7232 27.1126C28.6822 27.1344 28.6328 27.1442 28.5744 27.1421C28.5162 27.1402 28.4674 27.127 28.428 27.1025L24.9667 24.9425C24.9275 24.918 24.9083 24.889 24.9093 24.8552C24.9106 24.8216 24.9315 24.7938 24.9725 24.7723L27.5704 23.3888C27.6112 23.367 27.6609 23.3572 27.719 23.3592C27.7775 23.3612 27.8264 23.3744 27.8656 23.3989L28.4337 23.7534C28.4729 23.7779 28.4917 23.8069 28.4907 23.8407C28.4894 23.8743 28.4687 23.9022 28.4277 23.9238L26.7105 24.8381L27.2892 25.1992L28.8837 24.3503C28.9245 24.3285 28.974 24.3187 29.0326 24.3207C29.0907 24.3227 29.1396 24.3361 29.1786 24.3604L29.7467 24.7149C29.7861 24.7394 29.8052 24.7685 29.8039 24.8021C29.8029 24.8359 29.7818 24.8637 29.7408 24.8853L28.1465 25.7342L28.7466 26.1087L30.5084 25.1706Z" fill="#646464"/>
<path d="M31.4668 22.4289C31.5076 22.4072 31.5575 22.3975 31.6156 22.3995C31.6738 22.4015 31.7227 22.4146 31.7623 22.4392L32.3035 22.7769C32.3427 22.8014 32.3615 22.8304 32.3605 22.8642C32.3592 22.8978 32.3384 22.9258 32.2976 22.9473L31.7902 23.2174C31.4483 23.3996 31.4415 23.5931 31.7703 23.7981L33.0884 24.6207C33.1278 24.6452 33.147 24.6744 33.1456 24.708C33.1445 24.7416 33.1236 24.7696 33.0826 24.7911L32.3802 25.165C32.3394 25.187 32.2897 25.1967 32.2314 25.1947C32.1732 25.1927 32.1243 25.1794 32.0849 25.1549L29.5882 23.5968C29.5486 23.5722 29.5296 23.5432 29.5308 23.5094C29.5321 23.4758 29.5529 23.448 29.5938 23.4262L30.2405 23.0818C30.2814 23.06 30.331 23.0503 30.3892 23.0523C30.4475 23.0543 30.4964 23.0674 30.5358 23.0921L30.6589 23.1688C30.6659 23.0744 30.7046 22.9794 30.7754 22.8837C30.8461 22.7882 30.9651 22.6958 31.1323 22.6068L31.4668 22.4289Z" fill="#646464"/>
<path d="M34.1651 20.9923C34.2059 20.9704 34.2557 20.9607 34.3139 20.9627C34.3722 20.9647 34.4209 20.9778 34.4605 21.0025L35.0017 21.3402C35.0411 21.3647 35.0599 21.3938 35.0587 21.4274C35.0576 21.461 35.0368 21.489 34.9959 21.5106L34.4885 21.7806C34.1465 21.9628 34.1397 22.1563 34.4686 22.3614L35.7867 23.184C35.8261 23.2085 35.8452 23.2376 35.8439 23.271C35.8427 23.3048 35.8218 23.3326 35.7808 23.3544L35.0785 23.7283C35.0375 23.7502 34.988 23.7599 34.9296 23.7579C34.8715 23.7561 34.8224 23.7427 34.7834 23.7182L32.2866 22.1601C32.247 22.1354 32.2279 22.1064 32.229 22.0728C32.2304 22.0392 32.2511 22.0114 32.2921 21.9897L32.9388 21.6453C32.9796 21.6236 33.0294 21.6139 33.0874 21.6157C33.1458 21.6177 33.1945 21.631 33.2341 21.6555L33.3572 21.7324C33.3641 21.6379 33.403 21.5428 33.4738 21.4471C33.5446 21.3516 33.6635 21.2594 33.8307 21.1704L34.1651 20.9923Z" fill="#646464"/>
<path d="M38.9114 19.8405C38.9687 19.8721 39.0392 19.914 39.1233 19.9662C39.2073 20.0188 39.274 20.0628 39.3241 20.098C39.4878 20.209 39.608 20.331 39.6837 20.4641C39.7591 20.5973 39.7886 20.7338 39.771 20.8732C39.7532 21.0127 39.6845 21.1514 39.5649 21.2894C39.4453 21.4276 39.2719 21.557 39.0453 21.6776C38.8186 21.7984 38.5811 21.8877 38.333 21.9456C38.0846 22.0033 37.8393 22.032 37.5969 22.031C37.3542 22.0301 37.1204 22.0025 36.8961 21.9485C36.6718 21.8943 36.4702 21.8158 36.2914 21.7128C36.2341 21.6815 36.1637 21.6395 36.0795 21.5871C35.9957 21.5347 35.9288 21.4908 35.8787 21.4554C35.7111 21.3465 35.5892 21.2253 35.5138 21.092C35.438 20.9591 35.4098 20.822 35.4292 20.6817C35.4486 20.5411 35.5174 20.4014 35.6352 20.2622C35.7531 20.1229 35.9253 19.9931 36.1521 19.8723C36.3788 19.7515 36.6171 19.6628 36.8673 19.606C37.1175 19.5494 37.3644 19.521 37.6089 19.5209C37.8533 19.5209 38.0869 19.5485 38.3094 19.6035C38.5317 19.6585 38.7325 19.7375 38.9114 19.8405ZM37.2681 21.1618C37.4149 21.2406 37.5721 21.2798 37.7401 21.279C37.9078 21.2785 38.0663 21.2387 38.2149 21.1594C38.3634 21.0803 38.445 20.9926 38.4591 20.8962C38.4733 20.7998 38.4181 20.7062 38.2937 20.6156C38.2474 20.5782 38.1906 20.5383 38.1226 20.4959C38.0548 20.4535 37.9903 20.4176 37.9295 20.3881C37.7824 20.3093 37.6254 20.2703 37.4575 20.2709C37.2893 20.2716 37.1311 20.3114 36.9823 20.3905C36.8338 20.4698 36.7522 20.5575 36.7382 20.6539C36.7241 20.7503 36.7791 20.8439 36.9037 20.9346C36.9497 20.9719 37.0068 21.0118 37.0744 21.0542C37.1426 21.0964 37.2069 21.1325 37.2681 21.1618Z" fill="#646464"/>
<path d="M40.4087 17.6671C40.4497 17.6454 40.4994 17.6357 40.5575 17.6375C40.6159 17.6397 40.6647 17.6528 40.7041 17.6775L41.2453 18.0152C41.2848 18.0397 41.3035 18.0686 41.3024 18.1024C41.3012 18.136 41.2805 18.164 41.2395 18.1856L40.7321 18.4556C40.3902 18.6378 40.3834 18.8313 40.7122 19.0364L42.0303 19.8589C42.0696 19.8834 42.0889 19.9126 42.0875 19.946C42.0864 19.9798 42.0655 20.0076 42.0245 20.0293L41.3221 20.4033C41.2811 20.425 41.2316 20.4349 41.1733 20.4329C41.1151 20.4309 41.0662 20.4178 41.027 20.3931L38.5302 18.8351C38.4907 18.8104 38.4715 18.7814 38.4727 18.7478C38.474 18.7142 38.4947 18.6862 38.5357 18.6646L39.1824 18.3201C39.2234 18.2984 39.2731 18.2887 39.3311 18.2907C39.3894 18.2927 39.4383 18.3058 39.4779 18.3305L39.6008 18.4072C39.6078 18.3128 39.6467 18.2178 39.7174 18.1221C39.7882 18.0266 39.9071 17.9343 40.0744 17.8452L40.4087 17.6671Z" fill="#646464"/>
<path d="M22.6066 18.2716C22.6467 18.2483 22.696 18.2369 22.7544 18.2369C22.8126 18.2369 22.8617 18.2484 22.9017 18.2716L23.4816 18.6064C23.5218 18.6295 23.5419 18.658 23.5417 18.6916C23.5417 18.7252 23.5218 18.7539 23.4816 18.7769L20.8891 20.2737C20.8489 20.2968 20.7997 20.3084 20.7414 20.3082C20.6832 20.3084 20.6339 20.2968 20.5936 20.2737L17.0603 18.2337C17.0203 18.2105 17.0002 18.1822 17 18.1484C17.0002 18.1148 17.0201 18.0863 17.0603 18.0633L19.6092 16.5916C19.6493 16.5685 19.6986 16.5569 19.7568 16.5569C19.8153 16.5569 19.8646 16.5685 19.9047 16.5916L20.4845 16.9264C20.5246 16.9495 20.5443 16.9778 20.5445 17.0116C20.5443 17.0453 20.5246 17.0739 20.4844 17.0969L18.7996 18.0696L19.3903 18.4106L20.9548 17.5075C20.9948 17.4844 21.0439 17.4728 21.1025 17.4728C21.1607 17.4728 21.21 17.4845 21.2499 17.5075L21.8297 17.8423C21.87 17.8654 21.8901 17.8939 21.8899 17.9275C21.8901 17.9613 21.87 17.9898 21.8297 18.0128L20.2654 18.9159L20.8781 19.2695L22.6066 18.2716Z" fill="#646464"/>
<path d="M23.4706 15.4986C23.5106 15.4755 23.5601 15.4641 23.6183 15.4641C23.6765 15.4641 23.7258 15.4755 23.7662 15.4988L24.3187 15.8178C24.3587 15.8409 24.3785 15.8692 24.3786 15.903C24.3785 15.9367 24.3587 15.9653 24.3187 15.9883L23.8208 16.2755C23.4854 16.4694 23.4852 16.663 23.8208 16.8566L25.1664 17.6335C25.2066 17.6567 25.2267 17.6852 25.2266 17.7188C25.2266 17.7524 25.2066 17.7811 25.1664 17.804L24.4772 18.2018C24.4372 18.2252 24.3879 18.2365 24.3295 18.2365C24.2713 18.2365 24.222 18.225 24.1818 18.2018L21.6331 16.7303C21.5927 16.707 21.5728 16.6787 21.5728 16.6448C21.5729 16.6112 21.5927 16.5827 21.6329 16.5596L22.2674 16.1931C22.3075 16.17 22.3568 16.1586 22.415 16.1586C22.4733 16.1586 22.5226 16.17 22.5629 16.1933L22.6885 16.2657C22.6923 16.1712 22.7277 16.0749 22.7951 15.9769C22.8626 15.879 22.9783 15.7825 23.1424 15.6878L23.4706 15.4986Z" fill="#646464"/>
<path d="M26.118 13.9703C26.1581 13.9469 26.2076 13.9355 26.2658 13.9355C26.3241 13.9355 26.3733 13.9469 26.4137 13.9703L26.9661 14.2892C27.0064 14.3123 27.0261 14.3408 27.0261 14.3745C27.0261 14.4081 27.0064 14.4367 26.9661 14.4597L26.4683 14.747C26.1328 14.9408 26.1326 15.1344 26.4683 15.3281L27.8139 16.105C27.8541 16.1281 27.8742 16.1566 27.874 16.1901C27.874 16.2239 27.8541 16.2523 27.8139 16.2755L27.1247 16.6733C27.0845 16.6966 27.0354 16.708 26.977 16.708C26.9188 16.7082 26.8693 16.6964 26.8294 16.6733L24.2807 15.2017C24.2403 15.1784 24.2202 15.1501 24.2202 15.1165C24.2204 15.0828 24.2402 15.0543 24.2804 15.0312L24.9149 14.6649C24.9549 14.6418 25.0044 14.6304 25.0624 14.6302C25.1208 14.6302 25.1699 14.6418 25.2103 14.6649L25.336 14.7375C25.3397 14.6429 25.3753 14.5466 25.4428 14.4485C25.5102 14.3506 25.6259 14.2543 25.79 14.1596L26.118 13.9703Z" fill="#646464"/>
<path d="M30.8218 12.6566C30.8802 12.6861 30.9521 12.7256 31.0379 12.7749C31.1237 12.8246 31.1918 12.8662 31.2431 12.8997C31.4106 13.0051 31.5348 13.1229 31.6151 13.2533C31.695 13.3838 31.7292 13.5192 31.7163 13.6591C31.7034 13.7992 31.6395 13.9402 31.5247 14.0822C31.4099 14.2244 31.241 14.3597 31.0187 14.488C30.7962 14.6165 30.562 14.7139 30.316 14.7803C30.0697 14.8465 29.8255 14.8835 29.5832 14.8908C29.3406 14.8983 29.1061 14.8787 28.88 14.8324C28.654 14.786 28.4498 14.7144 28.2676 14.6176C28.2092 14.5882 28.1375 14.5487 28.0515 14.4992C27.9659 14.4497 27.8976 14.4081 27.8463 14.3745C27.6751 14.2714 27.5491 14.1545 27.4692 14.0238C27.3889 13.8935 27.356 13.7576 27.3705 13.6166C27.3851 13.4755 27.449 13.3334 27.5621 13.1903C27.6751 13.0471 27.8427 12.9114 28.0652 12.7829C28.2877 12.6544 28.5228 12.5576 28.7709 12.4923C29.019 12.4271 29.2648 12.3903 29.5092 12.3818C29.7534 12.3734 29.9878 12.393 30.212 12.4403C30.4361 12.4877 30.6396 12.5597 30.8218 12.6566ZM29.2248 14.0334C29.3743 14.1071 29.5327 14.1409 29.7005 14.1344C29.8682 14.1281 30.0252 14.0829 30.1709 13.9986C30.3167 13.9144 30.3952 13.824 30.406 13.7271C30.4169 13.6303 30.3585 13.5387 30.2311 13.4523C30.1836 13.4166 30.1254 13.3786 30.056 13.3386C29.9867 13.2986 29.921 13.2649 29.8593 13.2375C29.7096 13.1638 29.5514 13.1302 29.3835 13.1366C29.2155 13.143 29.0587 13.1882 28.9128 13.2724C28.767 13.3567 28.6885 13.4472 28.6778 13.544C28.667 13.6408 28.7252 13.7325 28.8528 13.8188C28.9001 13.8546 28.9585 13.8925 29.0276 13.9325C29.0972 13.9724 29.1627 14.0062 29.2248 14.0334Z" fill="#646464"/>
<path d="M32.244 10.4331C32.2842 10.41 32.3335 10.3986 32.3917 10.3984C32.4501 10.3986 32.4994 10.41 32.5396 10.4333L33.0921 10.7523C33.1323 10.7754 33.1521 10.8037 33.1521 10.8375C33.1521 10.8712 33.1323 10.8998 33.0921 10.9228L32.5943 11.21C32.2588 11.4039 32.2586 11.5975 32.5943 11.7912L33.9398 12.568C33.9799 12.5912 34.0002 12.6197 34 12.6531C34 12.6869 33.9801 12.7154 33.9398 12.7386L33.2507 13.1363C33.2105 13.1595 33.1613 13.171 33.103 13.171C33.0448 13.171 32.9955 13.1597 32.9554 13.1363L30.4067 11.6648C30.3663 11.6415 30.3462 11.6132 30.3462 11.5795C30.3464 11.5459 30.3661 11.5172 30.4063 11.4943L31.0409 11.1278C31.0811 11.1047 31.1304 11.0933 31.1884 11.0933C31.2468 11.0933 31.2961 11.1047 31.3365 11.128L31.462 11.2004C31.4657 11.1059 31.5013 11.0096 31.5688 10.9116C31.6362 10.8137 31.7519 10.7174 31.916 10.6225L32.244 10.4331Z" fill="#646464"/>
<path d="M47.2452 41.758L45.8541 42.5607C45.7766 42.6063 45.6805 42.6284 45.5672 42.6284C45.4539 42.6284 45.3591 42.6063 45.2816 42.5607L44.1981 41.9352L40.8531 43.8669C40.7756 43.9112 40.6796 43.9346 40.5663 43.9346C40.4531 43.9346 40.3582 43.9112 40.2794 43.8669L39.1541 43.2169C38.9694 43.111 38.8636 42.9965 38.8353 42.8734L38.0067 38.7293C38.0017 38.7023 38.0006 38.6776 38.0006 38.6555C38.0006 38.7356 37.9993 39.7697 38.0006 39.8202C38.0006 39.8399 38.003 39.8608 38.0067 39.8842L38.8353 44.0282C38.8636 44.1513 38.9694 44.2658 39.1541 44.3717L40.2794 45.0217C40.3582 45.066 40.453 45.0894 40.5663 45.0894C40.6796 45.0894 40.7756 45.066 40.8531 45.0217L44.1981 43.0901L45.2816 43.7155C45.3591 43.7611 45.454 43.7832 45.5672 43.7832C45.6804 43.7832 45.7765 43.7611 45.8541 43.7155L47.2452 42.9128C47.3228 42.8672 47.3622 42.8131 47.3622 42.7467V41.5918C47.3622 41.657 47.3228 41.7124 47.2452 41.758Z" fill="#FF401F"/>
<path d="M47.1925 41.263V40.1082C47.1925 40.1734 47.1531 40.2288 47.0756 40.2743L46.1621 40.8013L47.1482 41.3701C47.1765 41.3381 47.1925 41.3024 47.1925 41.263Z" fill="#FF401F"/>
<path d="M40.8592 41.1007L41.5511 41.502L42.552 40.9246L40.5981 39.7957L40.8579 41.1007H40.8592Z" fill="#FF401F"/>
<path opacity="0.45" d="M40.8592 41.1007L41.5511 41.502L42.552 40.9246L40.5981 39.7957L40.8579 41.1007H40.8592Z" fill="black"/>
<path opacity="0.2" d="M47.1925 41.263V40.1082C47.1925 40.1734 47.1531 40.2288 47.0756 40.2743L46.1621 40.8013L47.1482 41.3701C47.1765 41.3381 47.1925 41.3024 47.1925 41.263Z" fill="black"/>
<path opacity="0.3" d="M47.2449 41.758L45.8538 42.5607C45.7763 42.6063 45.6802 42.6284 45.5669 42.6284V43.7832C45.6801 43.7832 45.7762 43.7611 45.8538 43.7155L47.2449 42.9128C47.3225 42.8672 47.3619 42.8131 47.3619 42.7466V41.5918C47.3619 41.657 47.3225 41.7124 47.2449 41.758Z" fill="black"/>
<path opacity="0.4" d="M38.8353 42.8734L38.0067 38.7293C38.0017 38.7023 38.0006 38.6776 38.0006 38.6555C38.0006 38.7356 37.9993 39.7697 38.0006 39.8202C38.0006 39.8399 38.003 39.8608 38.0067 39.8842L38.8353 44.0282C38.8402 44.0516 38.8488 44.075 38.8611 44.0983V42.9435C38.8487 42.9201 38.8401 42.8967 38.8353 42.8734Z" fill="black"/>
<path opacity="0.45" d="M40.5659 43.9346C40.4527 43.9346 40.3578 43.9112 40.2791 43.8669L39.1538 43.2169C39.0048 43.1319 38.9063 43.0408 38.8608 42.9436V44.0985C38.9063 44.1957 39.0049 44.2869 39.1538 44.3717L40.2791 45.0217C40.3578 45.0661 40.4526 45.0894 40.5659 45.0894C40.577 45.0894 40.5869 45.0894 40.598 45.087V43.9322C40.5869 43.9346 40.5771 43.9346 40.5659 43.9346Z" fill="black"/>
<path opacity="0.3" d="M40.853 43.8669C40.7828 43.9076 40.6979 43.9297 40.5981 43.9322V45.0871C40.6979 45.0846 40.7828 45.0624 40.853 45.0218L44.198 43.0901V41.9353L40.853 43.8669Z" fill="black"/>
<path opacity="0.35" d="M45.2812 42.5608L44.1978 41.9353V43.0901L45.2812 43.7156C45.3587 43.7612 45.4536 43.7833 45.5668 43.7833V42.6285C45.4536 42.6285 45.3587 42.6064 45.2812 42.5608Z" fill="black"/>
<path d="M45.8544 42.5606C45.7764 42.6056 45.6808 42.6281 45.5675 42.628C45.4542 42.628 45.3588 42.6055 45.2809 42.5605L44.1978 41.9352L40.8528 43.8665C40.7748 43.9114 40.6796 43.9339 40.566 43.9339C40.4526 43.934 40.3574 43.9113 40.2794 43.8664L39.1539 43.2165C38.9698 43.1102 38.8636 42.9959 38.8352 42.8732L38.007 38.7287C37.9929 38.647 38.0001 38.5836 38.0281 38.5388C38.0566 38.4939 38.1168 38.4447 38.2087 38.3915L39.8121 37.4658C39.89 37.421 39.9856 37.3985 40.099 37.3984C40.2123 37.3985 40.3079 37.4211 40.3856 37.4659L44.4632 39.8201L45.3763 39.2928C45.454 39.2478 45.5499 39.2255 45.6631 39.2253C45.7765 39.2255 45.8718 39.2479 45.9497 39.2929L47.0753 39.9427C47.1532 39.9876 47.1922 40.0428 47.1922 40.1081C47.1922 40.1737 47.153 40.2288 47.0753 40.2738L46.1622 40.8011L47.2451 41.4263C47.3232 41.4714 47.362 41.5264 47.3622 41.5918C47.3621 41.6573 47.323 41.7125 47.2452 41.7574L45.8544 42.5606ZM42.5518 40.9237L40.5981 39.7957L41.0016 41.8188L42.5518 40.9237Z" fill="#FF401F"/>
<path d="M57.5681 34.8784C57.5631 35.1566 57.4536 35.4411 57.2431 35.7304C57.0165 36.0406 56.6386 36.3496 56.1068 36.6562C55.5761 36.9627 55.0418 37.1806 54.5038 37.3123C53.9658 37.4428 53.4401 37.5056 52.9267 37.4995C52.4145 37.4934 51.9196 37.4244 51.4456 37.2939C50.9716 37.1634 50.5321 36.9936 50.1282 36.7842C49.8242 36.6254 49.5065 36.4493 49.1728 36.2572C48.8405 36.0651 48.529 35.878 48.2384 35.6934C47.8777 35.4607 47.5835 35.2071 47.3581 34.9338C47.1303 34.6592 47.0122 34.3748 47.0023 34.0781C47.0085 34.2616 46.9949 35.031 47.0023 35.233C47.0121 35.5296 47.1303 35.8141 47.3581 36.0886C47.5834 36.3619 47.8776 36.6155 48.2384 36.8482C48.529 37.033 48.8405 37.22 49.1728 37.4121C49.5065 37.6042 49.8241 37.7801 50.1282 37.9402C50.5321 38.1483 50.9716 38.3182 51.4456 38.4487C51.9196 38.5791 52.4145 38.6481 52.9267 38.6542C53.4401 38.6604 53.9658 38.5976 54.5038 38.4671C55.0418 38.3353 55.5761 38.1175 56.1068 37.8109C56.6386 37.5043 57.0165 37.1953 57.2431 36.8851C57.4696 36.5749 57.578 36.2707 57.5668 35.9753C57.5607 35.8054 57.5717 35.1406 57.5681 34.8784Z" fill="#FF401F"/>
<path opacity="0.45" d="M53.2101 37.4934C53.1153 37.4969 53.0205 37.5005 52.9267 37.4995C52.4145 37.4934 51.9196 37.4244 51.4456 37.2939C50.9716 37.1634 50.5321 36.9936 50.1282 36.7842C49.8242 36.6254 49.5065 36.4493 49.1728 36.2572C48.8405 36.0651 48.529 35.878 48.2384 35.6934C47.8777 35.4607 47.5835 35.2071 47.3581 34.9338C47.1303 34.6592 47.0122 34.3748 47.0023 34.0781C47.0085 34.2616 46.9949 35.031 47.0023 35.233C47.0121 35.5296 47.1303 35.8141 47.3581 36.0886C47.5834 36.3619 47.8776 36.6155 48.2384 36.8482C48.529 37.033 48.8405 37.22 49.1728 37.4121C49.5065 37.6042 49.8241 37.7801 50.1282 37.9402C50.5321 38.1483 50.9716 38.3182 51.4456 38.4487C51.9196 38.5791 52.4145 38.6481 52.9267 38.6542C53.0206 38.6554 53.1154 38.6516 53.2101 38.6481V37.4934Z" fill="black"/>
<path opacity="0.3" d="M57.5678 34.8784C57.5628 35.1567 57.4533 35.4411 57.2428 35.7304C57.0162 36.0406 56.6383 36.3496 56.1065 36.6562C55.5758 36.9627 55.0415 37.1806 54.5035 37.3124C54.0639 37.419 53.6331 37.4779 53.21 37.4934V38.6483C53.6331 38.6327 54.0639 38.5738 54.5035 38.4672C55.0415 38.3355 55.5758 38.1176 56.1065 37.811C56.6383 37.5045 57.0162 37.1955 57.2428 36.8852C57.4693 36.575 57.5777 36.2708 57.5665 35.9754C57.5604 35.8055 57.5714 35.1406 57.5678 34.8784Z" fill="black"/>
<path d="M49.8425 34.2652C49.9015 34.3268 49.9705 34.3883 50.0493 34.4474C50.085 34.424 50.1207 34.4006 50.1601 34.3773C50.373 34.2554 50.5811 34.1717 50.7868 34.1261C50.9924 34.0817 51.1931 34.0657 51.3876 34.0805C51.5821 34.0952 51.7729 34.1335 51.9613 34.1962C52.1485 34.2603 52.338 34.339 52.5289 34.4326C53.1444 34.7565 53.7391 35.0987 54.3128 35.4631C54.3879 35.5099 54.4568 35.5579 54.5196 35.6047C54.671 35.5068 54.7806 35.4098 54.8435 35.3129C54.921 35.1948 54.9493 35.0778 54.9285 34.9633C54.9075 34.85 54.8423 34.7381 54.7327 34.6297C54.6219 34.5213 54.4828 34.4142 54.3129 34.3084C53.7392 33.944 53.1446 33.6005 52.529 33.2779C52.3381 33.1844 52.1486 33.1055 51.9614 33.0415C51.773 32.9787 51.5822 32.9406 51.3877 32.9257C51.1932 32.911 50.9925 32.927 50.7869 32.9713C50.5813 33.0168 50.3732 33.1006 50.1602 33.2225C49.9484 33.3456 49.8032 33.4663 49.7256 33.5845C49.6481 33.7026 49.6209 33.8184 49.6455 33.9304C49.6713 34.0436 49.7366 34.1544 49.8425 34.2652Z" fill="#FF401F"/>
<path opacity="0.45" d="M49.8425 34.2652C49.9015 34.3268 49.9705 34.3883 50.0493 34.4474C50.085 34.424 50.1207 34.4006 50.1601 34.3773C50.373 34.2554 50.5811 34.1717 50.7868 34.1261C50.9924 34.0817 51.1931 34.0657 51.3876 34.0805C51.5821 34.0952 51.7729 34.1335 51.9613 34.1962C52.1485 34.2603 52.338 34.339 52.5289 34.4326C53.1444 34.7565 53.7391 35.0987 54.3128 35.4631C54.3879 35.5099 54.4568 35.5579 54.5196 35.6047C54.671 35.5068 54.7806 35.4098 54.8435 35.3129C54.921 35.1948 54.9493 35.0778 54.9285 34.9633C54.9075 34.85 54.8423 34.7381 54.7327 34.6297C54.6219 34.5213 54.4828 34.4142 54.3129 34.3084C53.7392 33.944 53.1446 33.6005 52.529 33.2779C52.3381 33.1844 52.1486 33.1055 51.9614 33.0415C51.773 32.9787 51.5822 32.9406 51.3877 32.9257C51.1932 32.911 50.9925 32.927 50.7869 32.9713C50.5813 33.0168 50.3732 33.1006 50.1602 33.2225C49.9484 33.3456 49.8032 33.4663 49.7256 33.5845C49.6481 33.7026 49.6209 33.8184 49.6455 33.9304C49.6713 34.0436 49.7366 34.1544 49.8425 34.2652Z" fill="black"/>
<path d="M48.4616 32.2419C48.9925 31.9353 49.5273 31.7167 50.0652 31.5858C50.6031 31.4552 51.1289 31.3928 51.642 31.3988C52.155 31.4052 52.649 31.4735 53.1232 31.6043C53.5976 31.7352 54.0364 31.9048 54.44 32.1131C54.7585 32.2809 55.0842 32.4606 55.4169 32.6527C55.7496 32.8448 56.0538 33.0287 56.3302 33.2043C56.6911 33.4374 56.9849 33.6908 57.2114 33.9645C57.4381 34.2383 57.5565 34.5236 57.5673 34.8197C57.5779 35.116 57.47 35.4196 57.2435 35.7301C57.0168 36.0407 56.6381 36.3494 56.1072 36.6559C55.5764 36.9624 55.0418 37.181 54.5038 37.3119C53.966 37.4427 53.4402 37.5049 52.9269 37.4988C52.4139 37.4928 51.9197 37.4243 51.4458 37.2933C50.9713 37.1626 50.5325 36.993 50.1288 36.7847C49.8243 36.6252 49.5061 36.4496 49.1733 36.2574C48.8405 36.0653 48.5289 35.8773 48.2386 35.6933C47.8777 35.4603 47.5838 35.207 47.3575 34.933C47.1307 34.6594 47.0124 34.3742 47.0017 34.0779C46.9911 33.7816 47.0991 33.4781 47.3254 33.1675C47.5521 32.857 47.9307 32.5483 48.4616 32.2419ZM54.3125 34.3079C53.739 33.9442 53.1444 33.6009 52.5285 33.2779C52.3376 33.184 52.1479 33.1053 51.9606 33.0418C51.7729 32.9785 51.5818 32.9398 51.3871 32.9253C51.1926 32.9111 50.9921 32.9264 50.787 32.9713C50.5816 33.0163 50.3731 33.1001 50.1605 33.2227C49.9483 33.3453 49.8031 33.4659 49.7252 33.5845C49.6474 33.703 49.6209 33.8186 49.6455 33.9308C49.6706 34.0433 49.736 34.1545 49.842 34.265C49.9483 34.3754 50.0864 34.4838 50.2562 34.5899C50.8083 34.9496 51.4031 35.293 52.0402 35.6198C52.2242 35.718 52.4101 35.7985 52.5977 35.8619C52.785 35.9253 52.9781 35.9632 53.1763 35.9753C53.3747 35.9876 53.5764 35.9713 53.7816 35.9262C53.987 35.8812 54.1959 35.7975 54.4081 35.6748C54.6207 35.5522 54.7656 35.4316 54.8434 35.3131C54.9212 35.1947 54.9498 35.0781 54.9284 34.9636C54.9071 34.8493 54.8416 34.7378 54.7321 34.6296C54.622 34.5215 54.4823 34.4142 54.3125 34.3079Z" fill="#FF401F"/>
<path d="M68.2452 29.7579L66.8541 30.5605C66.7766 30.606 66.6805 30.6283 66.5672 30.6283C66.4539 30.6283 66.3591 30.6061 66.2816 30.5605L65.1981 29.9351L61.8531 31.8667C61.7755 31.9111 61.6796 31.9344 61.5663 31.9344C61.4531 31.9344 61.3582 31.9111 61.2794 31.8667L60.1541 31.2166C59.9694 31.1108 59.8636 30.9962 59.8353 30.8731L59.0067 26.7291C59.0017 26.702 59.0006 26.6774 59.0006 26.6553C59.0006 26.7353 58.9993 27.7695 59.0006 27.8199C59.0006 27.8396 59.003 27.8606 59.0067 27.8839L59.8353 32.028C59.8636 32.1511 59.9694 32.2655 60.1541 32.3715L61.2794 33.0216C61.3582 33.0659 61.453 33.0893 61.5663 33.0893C61.6796 33.0893 61.7755 33.0659 61.8531 33.0216L65.1981 31.0899L66.2816 31.7154C66.3592 31.7609 66.454 31.7831 66.5672 31.7831C66.6804 31.7831 66.7765 31.761 66.8541 31.7154L68.2452 30.9127C68.3228 30.8672 68.3622 30.813 68.3622 30.7465V29.5917C68.3622 29.6569 68.3228 29.7123 68.2452 29.7579Z" fill="#FF401F"/>
<path d="M68.1921 29.2628V28.1079C68.1921 28.1732 68.1527 28.2286 68.0751 28.2741L67.1616 28.8011L68.1478 29.3699C68.1761 29.3378 68.1921 29.3021 68.1921 29.2628Z" fill="#FF401F"/>
<path d="M61.8592 29.1002L62.551 29.5015L63.552 28.9241L61.5981 27.7952L61.8579 29.1002H61.8592Z" fill="#FF401F"/>
<path opacity="0.45" d="M61.8592 29.1002L62.551 29.5015L63.552 28.9241L61.5981 27.7952L61.8579 29.1002H61.8592Z" fill="black"/>
<path opacity="0.3" d="M68.1921 29.2628V28.1079C68.1921 28.1732 68.1527 28.2286 68.0751 28.2741L67.1616 28.8011L68.1478 29.3699C68.1761 29.3378 68.1921 29.3021 68.1921 29.2628Z" fill="black"/>
<path opacity="0.3" d="M68.2449 29.758L66.8538 30.5607C66.7763 30.6062 66.6802 30.6284 66.5669 30.6284V31.7832C66.6801 31.7832 66.7761 31.7611 66.8538 31.7155L68.2449 30.9128C68.3225 30.8673 68.3619 30.8131 68.3619 30.7466V29.5918C68.3619 29.657 68.3225 29.7124 68.2449 29.758Z" fill="black"/>
<path opacity="0.4" d="M59.8353 30.8731L59.0067 26.7291C59.0017 26.702 59.0006 26.6774 59.0006 26.6553C59.0006 26.7353 58.9993 27.7695 59.0006 27.8199C59.0006 27.8396 59.003 27.8606 59.0067 27.8839L59.8353 32.028C59.8402 32.0513 59.8488 32.0747 59.8611 32.0981V30.9432C59.8488 30.9199 59.8402 30.8965 59.8353 30.8731Z" fill="black"/>
<path opacity="0.45" d="M61.5659 31.9344C61.4527 31.9344 61.3578 31.9111 61.2791 31.8667L60.1538 31.2166C60.0048 31.1317 59.9063 31.0406 59.8608 30.9434V32.0982C59.9063 32.1955 60.0049 32.2866 60.1538 32.3715L61.2791 33.0216C61.3578 33.0659 61.4526 33.0893 61.5659 33.0893C61.577 33.0893 61.5869 33.0893 61.598 33.0869V31.932C61.5869 31.9344 61.577 31.9344 61.5659 31.9344Z" fill="black"/>
<path opacity="0.3" d="M61.853 31.8667C61.7828 31.9073 61.6979 31.9294 61.5981 31.932V33.0868C61.6979 33.0844 61.7829 33.0622 61.853 33.0215L65.198 31.0899V29.9351L61.853 31.8667Z" fill="black"/>
<path opacity="0.45" d="M66.2812 30.5605L65.1978 29.9351V31.0899L66.2812 31.7154C66.3588 31.7608 66.4536 31.7831 66.5668 31.7831V30.6282C66.4535 30.6282 66.3587 30.606 66.2812 30.5605Z" fill="black"/>
<path d="M66.8544 30.5605C66.7764 30.6055 66.6808 30.628 66.5675 30.6279C66.4543 30.6279 66.3588 30.6054 66.2809 30.5604L65.1978 29.935L61.8528 31.8664C61.7748 31.9113 61.6796 31.9338 61.566 31.9338C61.4526 31.9339 61.3574 31.9112 61.2794 31.8663L60.1539 31.2164C59.9698 31.1101 59.8636 30.9957 59.8352 30.8731L59.007 26.7287C58.9929 26.647 59.0001 26.5836 59.0281 26.5388C59.0566 26.4938 59.1168 26.4447 59.2087 26.3915L60.8121 25.4658C60.89 25.4211 60.9856 25.3985 61.0991 25.3984C61.2123 25.3985 61.3079 25.4211 61.3856 25.4659L65.4632 27.8201L66.3763 27.2928C66.454 27.2478 66.5499 27.2255 66.6631 27.2253C66.7765 27.2255 66.8718 27.2479 66.9497 27.2929L68.0753 27.9427C68.1532 27.9876 68.1922 28.0428 68.1922 28.1081C68.1922 28.1737 68.153 28.2288 68.0753 28.2738L67.1622 28.8011L68.2451 29.4263C68.3231 29.4714 68.362 29.5264 68.3622 29.5918C68.3621 29.6573 68.323 29.7125 68.2452 29.7574L66.8544 30.5605ZM63.5517 28.9236L61.598 27.7956L62.0015 29.8187L63.5517 28.9236Z" fill="#FF401F"/>
<defs>
<linearGradient id="paint0_linear_33_4626" x1="42.3122" y1="30.8516" x2="29.3533" y2="8.40615" gradientUnits="userSpaceOnUse">
<stop stop-color="#BFBFBF"/>
<stop offset="0.224324" stop-color="#D6D6D6"/>
<stop offset="0.87027" stop-color="#E6E6E6"/>
<stop offset="1" stop-color="#F5F5F5"/>
</linearGradient>
</defs>
</svg>
