<svg width="121" height="77" viewBox="0 0 121 77" fill="none" xmlns="http://www.w3.org/2000/svg">
<path d="M65.7559 19.75C67.8944 18.6347 71.2166 18.6717 73.2627 19.8614L76.9522 22.0049L77.1426 22.1221C78.0645 22.7159 78.5264 23.4691 78.5273 24.2227L78.5439 29.6719C78.5408 28.868 78.0156 28.065 76.9668 27.4551L76.9658 27.4541L73.2773 25.3116C71.2312 24.1229 67.9089 24.0856 65.7705 25.2002L65.5674 25.3116L32.169 44.5918L32.1699 44.5928C31.1001 45.2107 30.5655 46.0269 30.5674 46.8418L30.5527 41.3926C30.5507 40.5778 31.0847 39.7616 32.1543 39.1436L65.5527 19.8614L65.7559 19.75Z" fill="#292929"/>
<path d="M32.1545 40.1432C30.0285 41.3702 30.0175 43.3812 32.1295 44.6092L35.8195 46.7532C37.9315 47.9802 41.4035 47.9802 43.5295 46.7532L76.9275 27.4712C79.0535 26.2442 79.0645 24.2332 76.9525 23.0052L73.2635 20.8612C71.1515 19.6342 67.6795 19.6342 65.5535 20.8612L32.1545 40.1432Z" fill="#CCCCCC"/>
<path d="M64.6075 15.3262C66.7505 14.0892 70.2225 14.0892 72.3515 15.3262L87.6105 24.1932L39.3485 52.0572L24.0895 43.1892C21.9605 41.9522 21.9715 39.9412 24.1145 38.7042L64.6075 15.3262ZM35.8185 45.7532C37.9305 46.9802 41.4025 46.9802 43.5285 45.7532L76.9265 26.4712C79.0525 25.2442 79.0635 23.2332 76.9515 22.0052L73.2615 19.8612C71.1495 18.6342 67.6775 18.6342 65.5515 19.8612L32.1535 39.1432C30.0275 40.3702 30.0165 42.3812 32.1285 43.6092L35.8185 45.7532Z" fill="#4D4D4D"/>
<path d="M72.3516 15.3262L87.6106 24.1932L39.3486 52.0572L70.2816 70.0332C72.4186 71.2752 75.8906 71.2752 78.0336 70.0382L118.527 46.6602C120.67 45.4232 120.681 43.4122 118.544 42.1702L72.3516 15.3262Z" fill="#999999"/>
<path d="M24.0904 43.1901L39.3494 52.0581L70.2824 70.0341C72.4194 71.2761 75.8914 71.2761 78.0344 70.0391L118.527 46.6611C119.604 46.0391 120.143 45.2211 120.141 44.4051L120.156 49.8551C120.158 50.6721 119.62 51.4901 118.542 52.1121L78.0504 75.4901C75.9074 76.7271 72.4354 76.7271 70.2984 75.4851L39.3654 57.5091L24.1064 48.6421C23.0484 48.0271 22.5194 47.2221 22.5174 46.4151L22.5024 40.9651C22.5034 41.7701 23.0324 42.5751 24.0904 43.1901Z" fill="#666666"/>
<path d="M96.5605 34.6194L90.5615 38.0094L92.4085 39.1064L98.4075 35.7154L96.5605 34.6194Z" fill="#FDFDFD"/>
<path d="M85.5255 28.0503C87.4735 26.9493 90.6565 26.9783 92.5715 28.1153L112.515 39.9503C114.438 41.0923 114.403 42.9303 112.455 44.0313L106.422 47.4413C104.474 48.5423 101.3 48.5183 99.3765 47.3773L79.4335 35.5413C77.5185 34.4053 77.5455 32.5613 79.4935 31.4603L85.5255 28.0503ZM95.3955 40.8783L101.394 37.4873L99.5465 36.3913L93.5475 39.7823L95.3955 40.8783ZM92.4085 39.1063L98.4075 35.7153L96.5595 34.6193L90.5605 38.0093L92.4085 39.1063Z" fill="#474747"/>
<path d="M101.394 37.4944L99.5464 36.3984L93.5474 39.7894L95.3954 40.8854L101.394 37.4944Z" fill="#FDFDFD"/>
<path d="M78.0135 33.5022C78.0085 34.2382 78.4805 34.9772 79.4325 35.5412L99.3755 47.3772C101.3 48.5182 104.474 48.5432 106.422 47.4412L112.455 44.0312C113.436 43.4762 113.933 42.7342 113.937 41.9892L113.923 44.1692C113.918 44.9152 113.422 45.6562 112.441 46.2112L106.408 49.6212C104.46 50.7222 101.286 50.6982 99.3615 49.5572L79.4185 37.7212C78.4675 37.1562 77.9955 36.4172 77.9995 35.6822L78.0135 33.5022Z" fill="#282828"/>
<path d="M55.5332 45.0412C57.4902 43.9352 60.6642 43.9692 62.5792 45.1062L68.5102 48.6262C70.4252 49.7632 70.4062 51.6012 68.4502 52.7072L62.4252 56.1122C60.4682 57.2182 57.2862 57.1892 55.3712 56.0522L49.4402 52.5322C47.5252 51.3952 47.5522 49.5522 49.5092 48.4462L55.5332 45.0412ZM56.6302 53.1602L58.9732 51.8362L61.2592 53.1932L63.4642 51.9462L61.1782 50.5892L63.4872 49.2842L61.3192 47.9972L59.0102 49.3022L56.7242 47.9452L54.5182 49.1922L56.8042 50.5492L54.4612 51.8732L56.6302 53.1602Z" fill="#FDFDFD"/>
<path d="M54.5194 49.1923L56.8054 50.5493L54.4624 51.8733L56.6304 53.1603L58.9734 51.8363L61.2594 53.1923L63.4654 51.9463L61.1794 50.5893L63.4874 49.2843L61.3194 47.9983L59.0114 49.3023L56.7244 47.9453L54.5194 49.1923Z" fill="#474747"/>
<path d="M48.0223 50.4941C48.0173 51.2301 48.4893 51.9671 49.4403 52.5311L55.3713 56.0511C57.2863 57.1871 60.4683 57.2171 62.4253 56.1111L68.4503 52.7061C69.4343 52.1501 69.9283 51.4091 69.9323 50.6651L69.9183 52.8452C69.9133 53.5892 69.4193 54.3302 68.4363 54.8862L62.4113 58.2912C60.4543 59.3972 57.2723 59.3681 55.3573 58.2311L49.4263 54.7121C48.4763 54.1481 48.0043 53.4101 48.0083 52.6741L48.0223 50.4941Z" fill="#BFBFBF"/>
<path d="M69.6689 43.2091L71.8369 44.4961L78.4969 40.7321L76.3289 39.4451L69.6689 43.2091Z" fill="#474747"/>
<path d="M70.6367 36.4351C72.5937 35.3291 75.7667 35.3631 77.6827 36.4991L83.6137 40.0191C85.5287 41.1551 85.5097 42.9941 83.5537 44.1001L77.5287 47.5051C75.5717 48.6111 72.3977 48.5771 70.4827 47.4401L64.5517 43.9211C62.6367 42.7841 62.6557 40.9461 64.6117 39.8401L70.6367 36.4351ZM71.8367 44.4961L78.4967 40.7321L76.3287 39.4451L69.6687 43.2091L71.8367 44.4961Z" fill="#FDFDFD"/>
<path d="M63.1307 41.8811C63.1257 42.6171 63.5997 43.3561 64.5527 43.9211L70.4837 47.4401C72.3987 48.5771 75.5727 48.6111 77.5297 47.5051L83.5547 44.1001C84.5377 43.5441 85.0327 42.8031 85.0367 42.0591L85.0227 44.2391C85.0177 44.9831 84.5247 45.7241 83.5407 46.2801L77.5157 49.6851C75.5587 50.7911 72.3857 50.7571 70.4707 49.6201L64.5397 46.1011C63.5877 45.5361 63.1127 44.7971 63.1177 44.0611L63.1307 41.8811Z" fill="#BFBFBF"/>
<path d="M84.4813 47.828C83.9153 48.148 83.9063 48.68 84.4643 49.011C85.0213 49.342 85.9313 49.345 86.4983 49.025C87.0643 48.705 87.0813 48.178 86.5243 47.847C85.9673 47.516 85.0483 47.508 84.4813 47.828Z" fill="#474747"/>
<path d="M83.9521 51.3721L86.1292 52.6642L92.7891 48.9001L90.6121 47.6082L83.9521 51.3721Z" fill="#474747"/>
<path d="M90.2434 51.247C89.6774 51.567 89.6604 52.094 90.2174 52.425C90.7744 52.756 91.6934 52.7641 92.2594 52.4441C92.8254 52.1241 92.8334 51.5921 92.2774 51.2611C91.7204 50.9311 90.8104 50.927 90.2434 51.247Z" fill="#474747"/>
<path d="M84.9291 44.6031C86.8861 43.4971 90.0511 43.5261 91.9751 44.6681L97.8981 48.1821C99.8211 49.3241 99.7941 51.1571 97.8381 52.2631L91.8131 55.6681C89.8561 56.7741 86.6911 56.7451 84.7671 55.6031L78.8451 52.0881C76.9211 50.9471 76.9491 49.1131 78.9051 48.0071L84.9291 44.6031ZM86.1291 52.6641L92.7891 48.9001L90.6121 47.6081L83.9521 51.3721L86.1291 52.6641ZM92.2601 52.4441C92.8261 52.1241 92.8341 51.5921 92.2781 51.2611C91.7211 50.9311 90.8111 50.9271 90.2441 51.2471C89.6781 51.5671 89.6611 52.0941 90.2181 52.4251C90.7741 52.7561 91.6931 52.7641 92.2601 52.4441ZM84.4811 47.8281C83.9151 48.1481 83.9071 48.6801 84.4641 49.0111C85.0211 49.3421 85.9311 49.3451 86.4981 49.0251C87.0641 48.7051 87.0811 48.1781 86.5241 47.8471C85.9671 47.5161 85.0481 47.5081 84.4811 47.8281Z" fill="#FDFDFD"/>
<path d="M77.4193 50.05C77.4143 50.784 77.8893 51.5221 78.8443 52.0891L84.7663 55.604C86.6893 56.746 89.8553 56.7751 91.8123 55.6691L97.8373 52.2641C98.8223 51.7071 99.3183 50.9661 99.3223 50.2221L99.3083 52.4021C99.3033 53.1461 98.8073 53.8871 97.8233 54.4431L91.7983 57.8481C89.8413 58.9541 86.6763 58.9251 84.7523 57.7841L78.8303 54.2691C77.8753 53.7021 77.4003 52.9641 77.4053 52.2301L77.4193 50.05Z" fill="#BFBFBF"/>
<path d="M71.4974 56.0693L71.4834 58.2493L74.5814 58.2773L74.5944 56.0973L71.4974 56.0693Z" fill="#9B9B9B"/>
<path d="M69.5542 53.3353C71.5112 52.2293 74.6762 52.2583 76.6002 53.4003L82.5222 56.9153C84.4462 58.0563 84.4182 59.8903 82.4622 60.9963L76.4372 64.4013C74.4812 65.5073 71.3062 65.4833 69.3832 64.3413L63.4602 60.8263C61.5362 59.6853 61.5722 57.8463 63.5292 56.7403L69.5542 53.3353ZM71.4152 61.6383L74.5122 61.6663L74.5402 59.7833L77.7822 59.8083L77.8082 58.0143L74.5662 57.9893L74.5942 56.0963L71.4972 56.0683L71.4692 57.9603L68.1852 57.9303L68.1582 59.7243L71.4422 59.7543L71.4152 61.6383Z" fill="#FDFDFD"/>
<path d="M68.1842 57.9313L68.1582 59.7253L71.4422 59.7553L71.4152 61.6383L74.5122 61.6663L74.5402 59.7843L77.7822 59.8083L77.8082 58.0153L74.5662 57.9903L74.5942 56.0973L71.4972 56.0693L71.4692 57.9613L68.1842 57.9313Z" fill="#474747"/>
<path d="M62.0404 58.7893C62.0354 59.5233 62.5074 60.2603 63.4614 60.8263L69.3844 64.3413C71.3074 65.4833 74.4814 65.5073 76.4384 64.4013L82.4634 60.9963C83.4474 60.4393 83.9444 59.6993 83.9484 58.9543L83.9344 61.1343C83.9294 61.8783 83.4334 62.6193 82.4494 63.1763L76.4244 66.5813C74.4674 67.6873 71.2934 67.6633 69.3704 66.5213L63.4484 63.0063C62.4954 62.4403 62.0224 61.7033 62.0274 60.9693L62.0404 58.7893Z" fill="#BFBFBF"/>
<path d="M0 28.3984L24.8628 14.4213L5 22.3984C2.53424 23.8565 1.47853 25.2143 0 28.3984Z" fill="#ADADAD"/>
<mask id="mask0_35_2" style="mask-type:luminance" maskUnits="userSpaceOnUse" x="5" y="0" width="60" height="40">
<path d="M64.9148 17.509L27.5522 39.085C25.4295 29.2436 12.2293 19.2518 5 22.3984L22.4242 12.1303L41.3562 1.1903L41.4655 1.12497L41.4975 1.11429C41.6402 1.03829 42.2922 0.732949 43.2949 0.275616L43.3255 0.264938C50.6855 -1.7484 62.8775 8.07028 64.9148 17.509Z" fill="white"/>
</mask>
<g mask="url(#mask0_35_2)">
<path d="M64.9148 17.509L27.5522 39.085C25.4295 29.2436 12.5 19.3984 5 22.3984L22.4242 12.1303L41.3562 1.1903L41.4655 1.12497L41.4975 1.11429C41.6402 1.03829 42.2922 0.732949 43.2949 0.275616L43.3255 0.264938C50.6855 -1.7484 62.8775 8.07028 64.9148 17.509Z" fill="url(#paint0_linear_35_2)"/>
</g>
<path d="M18.9479 20.7932C18.4585 20.3692 18.4932 19.7653 19.0266 19.4439L44.5 4.89844C45.0333 4.57577 45.8613 4.65845 46.3507 5.08245C46.84 5.50645 46.8053 6.11044 46.272 6.43177L20.7972 20.9786C20.2639 21.2999 19.4359 21.2186 18.9479 20.7932Z" fill="#BFBFBF"/>
<path d="M27.332 27.8156C26.844 27.393 26.8787 26.7876 27.412 26.4649L54.5 11.3984C55.0333 11.0771 55.8613 11.1598 56.3507 11.5838C56.84 12.0078 56.8053 12.6118 56.272 12.9344L29.1827 28.0009C28.6494 28.3223 27.8213 28.2396 27.332 27.8156Z" fill="#BFBFBF"/>
<path d="M30.0084 25.1706C30.0492 25.1486 30.0989 25.1389 30.1572 25.1409C30.2154 25.1429 30.2641 25.1562 30.3033 25.1807L30.8714 25.5351C30.9108 25.5596 30.9299 25.5888 30.9286 25.6224C30.9274 25.656 30.9065 25.684 30.8655 25.7056L28.2232 27.1126C28.1822 27.1344 28.1328 27.1442 28.0744 27.1421C28.0162 27.1402 27.9674 27.127 27.928 27.1025L24.4667 24.9425C24.4275 24.918 24.4083 24.889 24.4093 24.8552C24.4106 24.8216 24.4315 24.7938 24.4725 24.7723L27.0704 23.3888C27.1112 23.367 27.1609 23.3572 27.219 23.3592C27.2775 23.3612 27.3264 23.3744 27.3656 23.3989L27.9337 23.7534C27.9729 23.7779 27.9917 23.8069 27.9907 23.8407C27.9894 23.8743 27.9687 23.9022 27.9277 23.9238L26.2105 24.8381L26.7892 25.1992L28.3837 24.3503C28.4245 24.3285 28.474 24.3187 28.5326 24.3207C28.5907 24.3227 28.6396 24.3361 28.6786 24.3604L29.2467 24.7149C29.2861 24.7394 29.3052 24.7685 29.3039 24.8021C29.3029 24.8359 29.2818 24.8637 29.2408 24.8853L27.6465 25.7342L28.2466 26.1087L30.0084 25.1706Z" fill="#646464"/>
<path d="M30.9668 22.4289C31.0076 22.4072 31.0575 22.3975 31.1156 22.3995C31.1738 22.4015 31.2227 22.4146 31.2623 22.4392L31.8035 22.7769C31.8427 22.8014 31.8615 22.8304 31.8605 22.8642C31.8592 22.8978 31.8384 22.9258 31.7976 22.9473L31.2902 23.2174C30.9483 23.3996 30.9415 23.5931 31.2703 23.7981L32.5884 24.6207C32.6278 24.6452 32.647 24.6744 32.6456 24.708C32.6445 24.7416 32.6236 24.7696 32.5826 24.7911L31.8802 25.165C31.8394 25.187 31.7897 25.1967 31.7314 25.1947C31.6732 25.1927 31.6243 25.1794 31.5849 25.1549L29.0882 23.5968C29.0486 23.5722 29.0296 23.5432 29.0308 23.5094C29.0321 23.4758 29.0529 23.448 29.0938 23.4262L29.7405 23.0818C29.7814 23.06 29.831 23.0503 29.8892 23.0523C29.9475 23.0543 29.9964 23.0674 30.0358 23.0921L30.1589 23.1688C30.1659 23.0744 30.2046 22.9794 30.2754 22.8837C30.3461 22.7882 30.4651 22.6958 30.6323 22.6068L30.9668 22.4289Z" fill="#646464"/>
<path d="M33.6651 20.9923C33.7059 20.9704 33.7557 20.9607 33.8139 20.9627C33.8722 20.9647 33.9209 20.9778 33.9605 21.0025L34.5017 21.3402C34.5411 21.3647 34.5599 21.3938 34.5587 21.4274C34.5576 21.461 34.5368 21.489 34.4959 21.5106L33.9885 21.7806C33.6465 21.9628 33.6397 22.1563 33.9686 22.3614L35.2867 23.184C35.3261 23.2085 35.3452 23.2376 35.3439 23.271C35.3427 23.3048 35.3218 23.3326 35.2808 23.3544L34.5785 23.7283C34.5375 23.7502 34.488 23.7599 34.4296 23.7579C34.3715 23.7561 34.3224 23.7427 34.2834 23.7182L31.7866 22.1601C31.747 22.1354 31.7279 22.1064 31.729 22.0728C31.7304 22.0392 31.7511 22.0114 31.7921 21.9897L32.4388 21.6453C32.4796 21.6236 32.5294 21.6139 32.5874 21.6157C32.6458 21.6177 32.6945 21.631 32.7341 21.6555L32.8572 21.7324C32.8641 21.6379 32.903 21.5428 32.9738 21.4471C33.0446 21.3516 33.1635 21.2594 33.3307 21.1704L33.6651 20.9923Z" fill="#646464"/>
<path d="M38.4114 19.8405C38.4687 19.8721 38.5392 19.914 38.6233 19.9662C38.7073 20.0188 38.774 20.0628 38.8241 20.098C38.9878 20.209 39.108 20.331 39.1837 20.4641C39.2591 20.5973 39.2886 20.7338 39.271 20.8732C39.2532 21.0127 39.1845 21.1514 39.0649 21.2894C38.9453 21.4276 38.7719 21.557 38.5453 21.6776C38.3186 21.7984 38.0811 21.8877 37.833 21.9456C37.5846 22.0033 37.3393 22.032 37.0969 22.031C36.8542 22.0301 36.6204 22.0025 36.3961 21.9485C36.1718 21.8943 35.9702 21.8158 35.7914 21.7128C35.7341 21.6815 35.6637 21.6395 35.5795 21.5871C35.4957 21.5347 35.4288 21.4908 35.3787 21.4554C35.2111 21.3465 35.0892 21.2253 35.0138 21.092C34.938 20.9591 34.9098 20.822 34.9292 20.6817C34.9486 20.5411 35.0174 20.4014 35.1352 20.2622C35.2531 20.1229 35.4253 19.9931 35.6521 19.8723C35.8788 19.7515 36.1171 19.6628 36.3673 19.606C36.6175 19.5494 36.8644 19.521 37.1089 19.5209C37.3533 19.5209 37.5869 19.5485 37.8094 19.6035C38.0317 19.6585 38.2325 19.7375 38.4114 19.8405ZM36.7681 21.1618C36.9149 21.2406 37.0721 21.2798 37.2401 21.279C37.4078 21.2785 37.5663 21.2387 37.7149 21.1594C37.8634 21.0803 37.945 20.9926 37.9591 20.8962C37.9733 20.7998 37.9181 20.7062 37.7937 20.6156C37.7474 20.5782 37.6906 20.5383 37.6226 20.4959C37.5548 20.4535 37.4903 20.4176 37.4295 20.3881C37.2824 20.3093 37.1254 20.2703 36.9575 20.2709C36.7893 20.2716 36.6311 20.3114 36.4823 20.3905C36.3338 20.4698 36.2522 20.5575 36.2382 20.6539C36.2241 20.7503 36.2791 20.8439 36.4037 20.9346C36.4497 20.9719 36.5068 21.0118 36.5744 21.0542C36.6426 21.0964 36.7069 21.1325 36.7681 21.1618Z" fill="#646464"/>
<path d="M39.9087 17.6671C39.9497 17.6454 39.9994 17.6357 40.0575 17.6375C40.1159 17.6397 40.1647 17.6528 40.2041 17.6775L40.7453 18.0152C40.7848 18.0397 40.8035 18.0686 40.8024 18.1024C40.8012 18.136 40.7805 18.164 40.7395 18.1856L40.2321 18.4556C39.8902 18.6378 39.8834 18.8313 40.2122 19.0364L41.5303 19.8589C41.5696 19.8834 41.5889 19.9126 41.5875 19.946C41.5864 19.9798 41.5655 20.0076 41.5245 20.0293L40.8221 20.4033C40.7811 20.425 40.7316 20.4349 40.6733 20.4329C40.6151 20.4309 40.5662 20.4178 40.527 20.3931L38.0302 18.8351C37.9907 18.8104 37.9715 18.7814 37.9727 18.7478C37.974 18.7142 37.9947 18.6862 38.0357 18.6646L38.6824 18.3201C38.7234 18.2984 38.7731 18.2887 38.8311 18.2907C38.8894 18.2927 38.9383 18.3058 38.9779 18.3305L39.1008 18.4072C39.1078 18.3128 39.1467 18.2178 39.2174 18.1221C39.2882 18.0266 39.4071 17.9343 39.5744 17.8452L39.9087 17.6671Z" fill="#646464"/>
<path d="M22.1066 18.2716C22.1467 18.2483 22.196 18.2369 22.2544 18.2369C22.3126 18.2369 22.3617 18.2484 22.4017 18.2716L22.9816 18.6064C23.0218 18.6295 23.0419 18.658 23.0417 18.6916C23.0417 18.7252 23.0218 18.7539 22.9816 18.7769L20.3891 20.2737C20.3489 20.2968 20.2997 20.3084 20.2414 20.3082C20.1832 20.3084 20.1339 20.2968 20.0936 20.2737L16.5603 18.2337C16.5203 18.2105 16.5002 18.1822 16.5 18.1484C16.5002 18.1148 16.5201 18.0863 16.5603 18.0633L19.1092 16.5916C19.1493 16.5685 19.1986 16.5569 19.2568 16.5569C19.3153 16.5569 19.3646 16.5685 19.4047 16.5916L19.9845 16.9264C20.0246 16.9495 20.0443 16.9778 20.0445 17.0116C20.0443 17.0453 20.0246 17.0739 19.9844 17.0969L18.2996 18.0696L18.8903 18.4106L20.4548 17.5075C20.4948 17.4844 20.5439 17.4728 20.6025 17.4728C20.6607 17.4728 20.71 17.4845 20.7499 17.5075L21.3297 17.8423C21.37 17.8654 21.3901 17.8939 21.3899 17.9275C21.3901 17.9613 21.37 17.9898 21.3297 18.0128L19.7654 18.9159L20.3781 19.2695L22.1066 18.2716Z" fill="#646464"/>
<path d="M22.9706 15.4986C23.0106 15.4755 23.0601 15.4641 23.1183 15.4641C23.1765 15.4641 23.2258 15.4755 23.2662 15.4988L23.8187 15.8178C23.8587 15.8409 23.8785 15.8692 23.8786 15.903C23.8785 15.9367 23.8587 15.9653 23.8187 15.9883L23.3208 16.2755C22.9854 16.4694 22.9852 16.663 23.3208 16.8566L24.6664 17.6335C24.7066 17.6567 24.7267 17.6852 24.7266 17.7188C24.7266 17.7524 24.7066 17.7811 24.6664 17.804L23.9772 18.2018C23.9372 18.2252 23.8879 18.2365 23.8295 18.2365C23.7713 18.2365 23.722 18.225 23.6818 18.2018L21.1331 16.7303C21.0927 16.707 21.0728 16.6787 21.0728 16.6448C21.0729 16.6112 21.0927 16.5827 21.1329 16.5596L21.7674 16.1931C21.8075 16.17 21.8568 16.1586 21.915 16.1586C21.9733 16.1586 22.0226 16.17 22.0629 16.1933L22.1885 16.2657C22.1923 16.1712 22.2277 16.0749 22.2951 15.9769C22.3626 15.879 22.4783 15.7825 22.6424 15.6878L22.9706 15.4986Z" fill="#646464"/>
<path d="M25.618 13.9703C25.6581 13.9469 25.7076 13.9355 25.7658 13.9355C25.8241 13.9355 25.8733 13.9469 25.9137 13.9703L26.4661 14.2892C26.5064 14.3123 26.5261 14.3408 26.5261 14.3745C26.5261 14.4081 26.5064 14.4367 26.4661 14.4597L25.9683 14.747C25.6328 14.9408 25.6326 15.1344 25.9683 15.3281L27.3139 16.105C27.3541 16.1281 27.3742 16.1566 27.374 16.1901C27.374 16.2239 27.3541 16.2523 27.3139 16.2755L26.6247 16.6733C26.5845 16.6966 26.5354 16.708 26.477 16.708C26.4188 16.7082 26.3693 16.6964 26.3294 16.6733L23.7807 15.2017C23.7403 15.1784 23.7202 15.1501 23.7202 15.1165C23.7204 15.0828 23.7402 15.0543 23.7804 15.0312L24.4149 14.6649C24.4549 14.6418 24.5044 14.6304 24.5624 14.6302C24.6208 14.6302 24.6699 14.6418 24.7103 14.6649L24.836 14.7375C24.8397 14.6429 24.8753 14.5466 24.9428 14.4485C25.0102 14.3506 25.1259 14.2543 25.29 14.1596L25.618 13.9703Z" fill="#646464"/>
<path d="M30.3218 12.6566C30.3802 12.6861 30.4521 12.7256 30.5379 12.7749C30.6237 12.8246 30.6918 12.8662 30.7431 12.8997C30.9106 13.0051 31.0348 13.1229 31.1151 13.2533C31.195 13.3838 31.2292 13.5192 31.2163 13.6591C31.2034 13.7992 31.1395 13.9402 31.0247 14.0822C30.9099 14.2244 30.741 14.3597 30.5187 14.488C30.2962 14.6165 30.062 14.7139 29.816 14.7803C29.5697 14.8465 29.3255 14.8835 29.0832 14.8908C28.8406 14.8983 28.6061 14.8787 28.38 14.8324C28.154 14.786 27.9498 14.7144 27.7676 14.6176C27.7092 14.5882 27.6375 14.5487 27.5515 14.4992C27.4659 14.4497 27.3976 14.4081 27.3463 14.3745C27.1751 14.2714 27.0491 14.1545 26.9692 14.0238C26.8889 13.8935 26.856 13.7576 26.8705 13.6166C26.8851 13.4755 26.949 13.3334 27.0621 13.1903C27.1751 13.0471 27.3427 12.9114 27.5652 12.7829C27.7877 12.6544 28.0228 12.5576 28.2709 12.4923C28.519 12.4271 28.7648 12.3903 29.0092 12.3818C29.2534 12.3734 29.4878 12.393 29.712 12.4403C29.9361 12.4877 30.1396 12.5597 30.3218 12.6566ZM28.7248 14.0334C28.8743 14.1071 29.0327 14.1409 29.2005 14.1344C29.3682 14.1281 29.5252 14.0829 29.6709 13.9986C29.8167 13.9144 29.8952 13.824 29.906 13.7271C29.9169 13.6303 29.8585 13.5387 29.7311 13.4523C29.6836 13.4166 29.6254 13.3786 29.556 13.3386C29.4867 13.2986 29.421 13.2649 29.3593 13.2375C29.2096 13.1638 29.0514 13.1302 28.8835 13.1366C28.7155 13.143 28.5587 13.1882 28.4128 13.2724C28.267 13.3567 28.1885 13.4472 28.1778 13.544C28.167 13.6408 28.2252 13.7325 28.3528 13.8188C28.4001 13.8546 28.4585 13.8925 28.5276 13.9325C28.5972 13.9724 28.6627 14.0062 28.7248 14.0334Z" fill="#646464"/>
<path d="M31.744 10.4331C31.7842 10.41 31.8335 10.3986 31.8917 10.3984C31.9501 10.3986 31.9994 10.41 32.0396 10.4333L32.5921 10.7523C32.6323 10.7754 32.6521 10.8037 32.6521 10.8375C32.6521 10.8712 32.6323 10.8998 32.5921 10.9228L32.0943 11.21C31.7588 11.4039 31.7586 11.5975 32.0943 11.7912L33.4398 12.568C33.4799 12.5912 33.5002 12.6197 33.5 12.6531C33.5 12.6869 33.4801 12.7154 33.4398 12.7386L32.7507 13.1363C32.7105 13.1595 32.6613 13.171 32.603 13.171C32.5448 13.171 32.4955 13.1597 32.4554 13.1363L29.9067 11.6648C29.8663 11.6415 29.8462 11.6132 29.8462 11.5795C29.8464 11.5459 29.8661 11.5172 29.9063 11.4943L30.5409 11.1278C30.5811 11.1047 30.6304 11.0933 30.6884 11.0933C30.7468 11.0933 30.7961 11.1047 30.8365 11.128L30.962 11.2004C30.9657 11.1059 31.0013 11.0096 31.0688 10.9116C31.1362 10.8137 31.2519 10.7174 31.416 10.6225L31.744 10.4331Z" fill="#646464"/>
<path d="M47.0681 40.8784C47.0631 41.1566 46.9536 41.4411 46.7431 41.7304C46.5165 42.0406 46.1386 42.3496 45.6068 42.6562C45.0761 42.9627 44.5418 43.1806 44.0038 43.3123C43.4658 43.4428 42.9401 43.5056 42.4267 43.4995C41.9145 43.4934 41.4196 43.4244 40.9456 43.2939C40.4716 43.1634 40.0321 42.9936 39.6282 42.7842C39.3242 42.6254 39.0065 42.4493 38.6728 42.2572C38.3405 42.0651 38.029 41.878 37.7384 41.6934C37.3777 41.4607 37.0835 41.2071 36.8581 40.9338C36.6303 40.6592 36.5122 40.3748 36.5023 40.0781C36.5085 40.2616 36.4949 41.031 36.5023 41.233C36.5121 41.5296 36.6303 41.8141 36.8581 42.0886C37.0834 42.3619 37.3776 42.6155 37.7384 42.8482C38.029 43.033 38.3405 43.22 38.6728 43.4121C39.0065 43.6042 39.3241 43.7801 39.6282 43.9402C40.0321 44.1483 40.4716 44.3182 40.9456 44.4487C41.4196 44.5791 41.9145 44.6481 42.4267 44.6542C42.9401 44.6604 43.4658 44.5976 44.0038 44.4671C44.5418 44.3353 45.0761 44.1175 45.6068 43.8109C46.1386 43.5043 46.5165 43.1953 46.7431 42.8851C46.9696 42.5749 47.078 42.2707 47.0668 41.9753C47.0607 41.8054 47.0717 41.1406 47.0681 40.8784Z" fill="#FF401F"/>
<path opacity="0.45" d="M42.7101 43.4934C42.6153 43.4969 42.5205 43.5005 42.4267 43.4995C41.9145 43.4934 41.4196 43.4244 40.9456 43.2939C40.4716 43.1634 40.0321 42.9936 39.6282 42.7842C39.3242 42.6254 39.0065 42.4493 38.6728 42.2572C38.3405 42.0651 38.029 41.878 37.7384 41.6934C37.3777 41.4607 37.0835 41.2071 36.8581 40.9338C36.6303 40.6592 36.5122 40.3748 36.5023 40.0781C36.5085 40.2616 36.4949 41.031 36.5023 41.233C36.5121 41.5296 36.6303 41.8141 36.8581 42.0886C37.0834 42.3619 37.3776 42.6155 37.7384 42.8482C38.029 43.033 38.3405 43.22 38.6728 43.4121C39.0065 43.6042 39.3241 43.7801 39.6282 43.9402C40.0321 44.1483 40.4716 44.3182 40.9456 44.4487C41.4196 44.5791 41.9145 44.6481 42.4267 44.6542C42.5206 44.6554 42.6154 44.6516 42.7101 44.6481V43.4934Z" fill="black"/>
<path opacity="0.3" d="M47.0678 40.8784C47.0628 41.1567 46.9533 41.4411 46.7428 41.7304C46.5162 42.0406 46.1383 42.3496 45.6065 42.6562C45.0758 42.9627 44.5415 43.1806 44.0035 43.3124C43.5639 43.419 43.1331 43.4779 42.71 43.4934V44.6483C43.1331 44.6327 43.5639 44.5738 44.0035 44.4672C44.5415 44.3355 45.0758 44.1176 45.6065 43.811C46.1383 43.5045 46.5162 43.1955 46.7428 42.8852C46.9693 42.575 47.0777 42.2708 47.0665 41.9754C47.0604 41.8055 47.0714 41.1406 47.0678 40.8784Z" fill="black"/>
<path d="M39.3425 40.2652C39.4015 40.3268 39.4705 40.3883 39.5493 40.4474C39.585 40.424 39.6207 40.4006 39.6601 40.3773C39.873 40.2554 40.0811 40.1717 40.2868 40.1261C40.4924 40.0817 40.6931 40.0657 40.8876 40.0805C41.0821 40.0952 41.2729 40.1335 41.4613 40.1962C41.6485 40.2603 41.838 40.339 42.0289 40.4326C42.6444 40.7565 43.2391 41.0987 43.8128 41.4631C43.8879 41.5099 43.9568 41.5579 44.0196 41.6047C44.171 41.5068 44.2806 41.4098 44.3435 41.3129C44.421 41.1948 44.4493 41.0778 44.4285 40.9633C44.4075 40.85 44.3423 40.7381 44.2327 40.6297C44.1219 40.5213 43.9828 40.4142 43.8129 40.3084C43.2392 39.944 42.6446 39.6005 42.029 39.2779C41.8381 39.1844 41.6486 39.1055 41.4614 39.0415C41.273 38.9787 41.0822 38.9406 40.8877 38.9257C40.6932 38.911 40.4925 38.927 40.2869 38.9713C40.0813 39.0168 39.8732 39.1006 39.6602 39.2225C39.4484 39.3456 39.3032 39.4663 39.2256 39.5845C39.1481 39.7026 39.1209 39.8184 39.1455 39.9304C39.1713 40.0436 39.2366 40.1544 39.3425 40.2652Z" fill="#FF401F"/>
<path opacity="0.45" d="M39.3425 40.2652C39.4015 40.3268 39.4705 40.3883 39.5493 40.4474C39.585 40.424 39.6207 40.4006 39.6601 40.3773C39.873 40.2554 40.0811 40.1717 40.2868 40.1261C40.4924 40.0817 40.6931 40.0657 40.8876 40.0805C41.0821 40.0952 41.2729 40.1335 41.4613 40.1962C41.6485 40.2603 41.838 40.339 42.0289 40.4326C42.6444 40.7565 43.2391 41.0987 43.8128 41.4631C43.8879 41.5099 43.9568 41.5579 44.0196 41.6047C44.171 41.5068 44.2806 41.4098 44.3435 41.3129C44.421 41.1948 44.4493 41.0778 44.4285 40.9633C44.4075 40.85 44.3423 40.7381 44.2327 40.6297C44.1219 40.5213 43.9828 40.4142 43.8129 40.3084C43.2392 39.944 42.6446 39.6005 42.029 39.2779C41.8381 39.1844 41.6486 39.1055 41.4614 39.0415C41.273 38.9787 41.0822 38.9406 40.8877 38.9257C40.6932 38.911 40.4925 38.927 40.2869 38.9713C40.0813 39.0168 39.8732 39.1006 39.6602 39.2225C39.4484 39.3456 39.3032 39.4663 39.2256 39.5845C39.1481 39.7026 39.1209 39.8184 39.1455 39.9304C39.1713 40.0436 39.2366 40.1544 39.3425 40.2652Z" fill="black"/>
<path d="M37.9616 38.2419C38.4925 37.9353 39.0273 37.7167 39.5652 37.5858C40.1031 37.4552 40.6289 37.3928 41.142 37.3988C41.655 37.4052 42.149 37.4735 42.6232 37.6043C43.0976 37.7352 43.5364 37.9048 43.94 38.1131C44.2585 38.2809 44.5842 38.4606 44.9169 38.6527C45.2496 38.8448 45.5538 39.0287 45.8302 39.2043C46.1911 39.4374 46.4849 39.6908 46.7114 39.9645C46.9381 40.2383 47.0565 40.5236 47.0673 40.8197C47.0779 41.116 46.97 41.4196 46.7435 41.7301C46.5168 42.0407 46.1381 42.3494 45.6072 42.6559C45.0764 42.9624 44.5418 43.181 44.0038 43.3119C43.466 43.4427 42.9402 43.5049 42.4269 43.4988C41.9139 43.4928 41.4197 43.4243 40.9458 43.2933C40.4713 43.1626 40.0325 42.993 39.6288 42.7847C39.3243 42.6252 39.0061 42.4496 38.6733 42.2574C38.3405 42.0653 38.0289 41.8773 37.7386 41.6933C37.3777 41.4603 37.0838 41.207 36.8575 40.933C36.6307 40.6594 36.5124 40.3742 36.5017 40.0779C36.4911 39.7816 36.5991 39.4781 36.8254 39.1675C37.0521 38.857 37.4307 38.5483 37.9616 38.2419ZM43.8125 40.3079C43.239 39.9442 42.6444 39.6009 42.0285 39.2779C41.8376 39.184 41.6479 39.1053 41.4606 39.0418C41.2729 38.9785 41.0818 38.9398 40.8871 38.9253C40.6926 38.9111 40.4921 38.9264 40.287 38.9713C40.0816 39.0163 39.8731 39.1001 39.6605 39.2227C39.4483 39.3453 39.3031 39.4659 39.2252 39.5845C39.1474 39.703 39.1209 39.8186 39.1455 39.9308C39.1706 40.0433 39.236 40.1545 39.342 40.265C39.4483 40.3754 39.5864 40.4838 39.7562 40.5899C40.3083 40.9496 40.9031 41.293 41.5402 41.6198C41.7242 41.718 41.9101 41.7985 42.0977 41.8619C42.285 41.9253 42.4781 41.9632 42.6763 41.9753C42.8747 41.9876 43.0764 41.9713 43.2816 41.9262C43.487 41.8812 43.6959 41.7975 43.9081 41.6748C44.1207 41.5522 44.2656 41.4316 44.3434 41.3131C44.4212 41.1947 44.4498 41.0781 44.4284 40.9636C44.4071 40.8493 44.3416 40.7378 44.2321 40.6296C44.122 40.5215 43.9823 40.4142 43.8125 40.3079Z" fill="#FF401F"/>
<path d="M57.0681 34.8784C57.0631 35.1566 56.9536 35.4411 56.7431 35.7304C56.5165 36.0406 56.1386 36.3496 55.6068 36.6562C55.0761 36.9627 54.5418 37.1806 54.0038 37.3123C53.4658 37.4428 52.9401 37.5056 52.4267 37.4995C51.9145 37.4934 51.4196 37.4244 50.9456 37.2939C50.4716 37.1634 50.0321 36.9936 49.6282 36.7842C49.3242 36.6254 49.0065 36.4493 48.6728 36.2572C48.3405 36.0651 48.029 35.878 47.7384 35.6934C47.3777 35.4607 47.0835 35.2071 46.8581 34.9338C46.6303 34.6592 46.5122 34.3748 46.5023 34.0781C46.5085 34.2616 46.4949 35.031 46.5023 35.233C46.5121 35.5296 46.6303 35.8141 46.8581 36.0886C47.0834 36.3619 47.3776 36.6155 47.7384 36.8482C48.029 37.033 48.3405 37.22 48.6728 37.4121C49.0065 37.6042 49.3241 37.7801 49.6282 37.9402C50.0321 38.1483 50.4716 38.3182 50.9456 38.4487C51.4196 38.5791 51.9145 38.6481 52.4267 38.6542C52.9401 38.6604 53.4658 38.5976 54.0038 38.4671C54.5418 38.3353 55.0761 38.1175 55.6068 37.8109C56.1386 37.5043 56.5165 37.1953 56.7431 36.8851C56.9696 36.5749 57.078 36.2707 57.0668 35.9753C57.0607 35.8054 57.0717 35.1406 57.0681 34.8784Z" fill="#FF401F"/>
<path opacity="0.45" d="M52.7101 37.4934C52.6153 37.4969 52.5205 37.5005 52.4267 37.4995C51.9145 37.4934 51.4196 37.4244 50.9456 37.2939C50.4716 37.1634 50.0321 36.9936 49.6282 36.7842C49.3242 36.6254 49.0065 36.4493 48.6728 36.2572C48.3405 36.0651 48.029 35.878 47.7384 35.6934C47.3777 35.4607 47.0835 35.2071 46.8581 34.9338C46.6303 34.6592 46.5122 34.3748 46.5023 34.0781C46.5085 34.2616 46.4949 35.031 46.5023 35.233C46.5121 35.5296 46.6303 35.8141 46.8581 36.0886C47.0834 36.3619 47.3776 36.6155 47.7384 36.8482C48.029 37.033 48.3405 37.22 48.6728 37.4121C49.0065 37.6042 49.3241 37.7801 49.6282 37.9402C50.0321 38.1483 50.4716 38.3182 50.9456 38.4487C51.4196 38.5791 51.9145 38.6481 52.4267 38.6542C52.5206 38.6554 52.6154 38.6516 52.7101 38.6481V37.4934Z" fill="black"/>
<path opacity="0.3" d="M57.0678 34.8784C57.0628 35.1567 56.9533 35.4411 56.7428 35.7304C56.5162 36.0406 56.1383 36.3496 55.6065 36.6562C55.0758 36.9627 54.5415 37.1806 54.0035 37.3124C53.5639 37.419 53.1331 37.4779 52.71 37.4934V38.6483C53.1331 38.6327 53.5639 38.5738 54.0035 38.4672C54.5415 38.3355 55.0758 38.1176 55.6065 37.811C56.1383 37.5045 56.5162 37.1955 56.7428 36.8852C56.9693 36.575 57.0777 36.2708 57.0665 35.9754C57.0604 35.8055 57.0714 35.1406 57.0678 34.8784Z" fill="black"/>
<path d="M49.3425 34.2652C49.4015 34.3268 49.4705 34.3883 49.5493 34.4474C49.585 34.424 49.6207 34.4006 49.6601 34.3773C49.873 34.2554 50.0811 34.1717 50.2868 34.1261C50.4924 34.0817 50.6931 34.0657 50.8876 34.0805C51.0821 34.0952 51.2729 34.1335 51.4613 34.1962C51.6485 34.2603 51.838 34.339 52.0289 34.4326C52.6444 34.7565 53.2391 35.0987 53.8128 35.4631C53.8879 35.5099 53.9568 35.5579 54.0196 35.6047C54.171 35.5068 54.2806 35.4098 54.3435 35.3129C54.421 35.1948 54.4493 35.0778 54.4285 34.9633C54.4075 34.85 54.3423 34.7381 54.2327 34.6297C54.1219 34.5213 53.9828 34.4142 53.8129 34.3084C53.2392 33.944 52.6446 33.6005 52.029 33.2779C51.8381 33.1844 51.6486 33.1055 51.4614 33.0415C51.273 32.9787 51.0822 32.9406 50.8877 32.9257C50.6932 32.911 50.4925 32.927 50.2869 32.9713C50.0813 33.0168 49.8732 33.1006 49.6602 33.2225C49.4484 33.3456 49.3032 33.4663 49.2256 33.5845C49.1481 33.7026 49.1209 33.8184 49.1455 33.9304C49.1713 34.0436 49.2366 34.1544 49.3425 34.2652Z" fill="#FF401F"/>
<path opacity="0.45" d="M49.3425 34.2652C49.4015 34.3268 49.4705 34.3883 49.5493 34.4474C49.585 34.424 49.6207 34.4006 49.6601 34.3773C49.873 34.2554 50.0811 34.1717 50.2868 34.1261C50.4924 34.0817 50.6931 34.0657 50.8876 34.0805C51.0821 34.0952 51.2729 34.1335 51.4613 34.1962C51.6485 34.2603 51.838 34.339 52.0289 34.4326C52.6444 34.7565 53.2391 35.0987 53.8128 35.4631C53.8879 35.5099 53.9568 35.5579 54.0196 35.6047C54.171 35.5068 54.2806 35.4098 54.3435 35.3129C54.421 35.1948 54.4493 35.0778 54.4285 34.9633C54.4075 34.85 54.3423 34.7381 54.2327 34.6297C54.1219 34.5213 53.9828 34.4142 53.8129 34.3084C53.2392 33.944 52.6446 33.6005 52.029 33.2779C51.8381 33.1844 51.6486 33.1055 51.4614 33.0415C51.273 32.9787 51.0822 32.9406 50.8877 32.9257C50.6932 32.911 50.4925 32.927 50.2869 32.9713C50.0813 33.0168 49.8732 33.1006 49.6602 33.2225C49.4484 33.3456 49.3032 33.4663 49.2256 33.5845C49.1481 33.7026 49.1209 33.8184 49.1455 33.9304C49.1713 34.0436 49.2366 34.1544 49.3425 34.2652Z" fill="black"/>
<path d="M47.9616 32.2419C48.4925 31.9353 49.0273 31.7167 49.5652 31.5858C50.1031 31.4552 50.6289 31.3928 51.142 31.3988C51.655 31.4052 52.149 31.4735 52.6232 31.6043C53.0976 31.7352 53.5364 31.9048 53.94 32.1131C54.2585 32.2809 54.5842 32.4606 54.9169 32.6527C55.2496 32.8448 55.5538 33.0287 55.8302 33.2043C56.1911 33.4374 56.4849 33.6908 56.7114 33.9645C56.9381 34.2383 57.0565 34.5236 57.0673 34.8197C57.0779 35.116 56.97 35.4196 56.7435 35.7301C56.5168 36.0407 56.1381 36.3494 55.6072 36.6559C55.0764 36.9624 54.5418 37.181 54.0038 37.3119C53.466 37.4427 52.9402 37.5049 52.4269 37.4988C51.9139 37.4928 51.4197 37.4243 50.9458 37.2933C50.4713 37.1626 50.0325 36.993 49.6288 36.7847C49.3243 36.6252 49.0061 36.4496 48.6733 36.2574C48.3405 36.0653 48.0289 35.8773 47.7386 35.6933C47.3777 35.4603 47.0838 35.207 46.8575 34.933C46.6307 34.6594 46.5124 34.3742 46.5017 34.0779C46.4911 33.7816 46.5991 33.4781 46.8254 33.1675C47.0521 32.857 47.4307 32.5483 47.9616 32.2419ZM53.8125 34.3079C53.239 33.9442 52.6444 33.6009 52.0285 33.2779C51.8376 33.184 51.6479 33.1053 51.4606 33.0418C51.2729 32.9785 51.0818 32.9398 50.8871 32.9253C50.6926 32.9111 50.4921 32.9264 50.287 32.9713C50.0816 33.0163 49.8731 33.1001 49.6605 33.2227C49.4483 33.3453 49.3031 33.4659 49.2252 33.5845C49.1474 33.703 49.1209 33.8186 49.1455 33.9308C49.1706 34.0433 49.236 34.1545 49.342 34.265C49.4483 34.3754 49.5864 34.4838 49.7562 34.5899C50.3083 34.9496 50.9031 35.293 51.5402 35.6198C51.7242 35.718 51.9101 35.7985 52.0977 35.8619C52.285 35.9253 52.4781 35.9632 52.6763 35.9753C52.8747 35.9876 53.0764 35.9713 53.2816 35.9262C53.487 35.8812 53.6959 35.7975 53.9081 35.6748C54.1207 35.5522 54.2656 35.4316 54.3434 35.3131C54.4212 35.1947 54.4498 35.0781 54.4284 34.9636C54.4071 34.8493 54.3416 34.7378 54.2321 34.6296C54.122 34.5215 53.9823 34.4142 53.8125 34.3079Z" fill="#FF401F"/>
<path d="M66.5681 29.4799C66.5631 29.7582 66.4536 30.0426 66.2431 30.3319C66.0165 30.6422 65.6386 30.9512 65.1068 31.2577C64.5761 31.5643 64.0418 31.7822 63.5038 31.9139C62.9658 32.0444 62.4401 32.1072 61.9267 32.1011C61.4145 32.0949 60.9196 32.026 60.4456 31.8955C59.9716 31.765 59.5321 31.5951 59.1282 31.3858C58.8242 31.227 58.5065 31.0509 58.1728 30.8588C57.8405 30.6667 57.529 30.4796 57.2384 30.295C56.8777 30.0622 56.5835 29.8086 56.3581 29.5353C56.1303 29.2608 56.0122 28.9764 56.0023 28.6797C56.0085 28.8631 55.9949 29.6325 56.0023 29.8345C56.0121 30.1312 56.1303 30.4156 56.3581 30.6902C56.5834 30.9635 56.8776 31.2171 57.2384 31.4498C57.529 31.6345 57.8405 31.8216 58.1728 32.0136C58.5065 32.2057 58.8241 32.3817 59.1282 32.5418C59.5321 32.7499 59.9716 32.9197 60.4456 33.0502C60.9196 33.1807 61.4145 33.2497 61.9267 33.2558C62.4401 33.262 62.9658 33.1991 63.5038 33.0687C64.0418 32.9369 64.5761 32.719 65.1068 32.4125C65.6386 32.1059 66.0165 31.7969 66.2431 31.4867C66.4696 31.1764 66.578 30.8723 66.5668 30.5769C66.5607 30.407 66.5717 29.7422 66.5681 29.4799Z" fill="#FF401F"/>
<path opacity="0.45" d="M62.2101 32.0949C62.1153 32.0984 62.0205 32.1021 61.9267 32.1011C61.4145 32.0949 60.9196 32.026 60.4456 31.8955C59.9716 31.765 59.5321 31.5951 59.1282 31.3858C58.8242 31.227 58.5065 31.0509 58.1728 30.8588C57.8405 30.6667 57.529 30.4796 57.2384 30.295C56.8777 30.0622 56.5835 29.8086 56.3581 29.5353C56.1303 29.2608 56.0122 28.9764 56.0023 28.6797C56.0085 28.8631 55.9949 29.6325 56.0023 29.8345C56.0121 30.1312 56.1303 30.4156 56.3581 30.6902C56.5834 30.9635 56.8776 31.2171 57.2384 31.4498C57.529 31.6345 57.8405 31.8216 58.1728 32.0136C58.5065 32.2057 58.8241 32.3817 59.1282 32.5418C59.5321 32.7499 59.9716 32.9197 60.4456 33.0502C60.9196 33.1807 61.4145 33.2497 61.9267 33.2558C62.0206 33.2569 62.1154 33.2532 62.2101 33.2497V32.0949Z" fill="black"/>
<path opacity="0.3" d="M66.5678 29.48C66.5628 29.7582 66.4533 30.0427 66.2428 30.332C66.0162 30.6422 65.6383 30.9512 65.1065 31.2577C64.5758 31.5643 64.0415 31.7822 63.5035 31.9139C63.0639 32.0205 62.6331 32.0795 62.21 32.095V33.2498C62.6331 33.2342 63.0639 33.1754 63.5035 33.0688C64.0415 32.937 64.5758 32.7192 65.1065 32.4126C65.6383 32.106 66.0162 31.797 66.2428 31.4868C66.4693 31.1765 66.5777 30.8724 66.5665 30.577C66.5604 30.407 66.5714 29.7422 66.5678 29.48Z" fill="black"/>
<path d="M58.8425 28.8668C58.9015 28.9284 58.9705 28.9899 59.0493 29.049C59.085 29.0256 59.1207 29.0022 59.1601 28.9788C59.373 28.857 59.5811 28.7732 59.7868 28.7276C59.9924 28.6833 60.1931 28.6673 60.3876 28.682C60.5821 28.6968 60.7729 28.735 60.9613 28.7978C61.1485 28.8618 61.338 28.9406 61.5289 29.0342C62.1444 29.358 62.7391 29.7003 63.3128 30.0647C63.3879 30.1114 63.4568 30.1595 63.5196 30.2062C63.671 30.1084 63.7806 30.0114 63.8435 29.9145C63.921 29.7964 63.9493 29.6793 63.9285 29.5649C63.9075 29.4516 63.8423 29.3396 63.7327 29.2312C63.6219 29.1229 63.4828 29.0158 63.3129 28.9099C62.7392 28.5456 62.1446 28.202 61.529 27.8795C61.3381 27.786 61.1486 27.7071 60.9614 27.643C60.773 27.5803 60.5822 27.5422 60.3877 27.5273C60.1932 27.5126 59.9925 27.5286 59.7869 27.5729C59.5813 27.6184 59.3732 27.7021 59.1602 27.8241C58.9484 27.9472 58.8032 28.0679 58.7256 28.186C58.6481 28.3042 58.6209 28.4199 58.6455 28.532C58.6713 28.6452 58.7366 28.756 58.8425 28.8668Z" fill="#FF401F"/>
<path opacity="0.45" d="M58.8425 28.8668C58.9015 28.9284 58.9705 28.9899 59.0493 29.049C59.085 29.0256 59.1207 29.0022 59.1601 28.9788C59.373 28.857 59.5811 28.7732 59.7868 28.7276C59.9924 28.6833 60.1931 28.6673 60.3876 28.682C60.5821 28.6968 60.7729 28.735 60.9613 28.7978C61.1485 28.8618 61.338 28.9406 61.5289 29.0342C62.1444 29.358 62.7391 29.7003 63.3128 30.0647C63.3879 30.1114 63.4568 30.1595 63.5196 30.2062C63.671 30.1084 63.7806 30.0114 63.8435 29.9145C63.921 29.7964 63.9493 29.6793 63.9285 29.5649C63.9075 29.4516 63.8423 29.3396 63.7327 29.2312C63.6219 29.1229 63.4828 29.0158 63.3129 28.9099C62.7392 28.5456 62.1446 28.202 61.529 27.8795C61.3381 27.786 61.1486 27.7071 60.9614 27.643C60.773 27.5803 60.5822 27.5422 60.3877 27.5273C60.1932 27.5126 59.9925 27.5286 59.7869 27.5729C59.5813 27.6184 59.3732 27.7021 59.1602 27.8241C58.9484 27.9472 58.8032 28.0679 58.7256 28.186C58.6481 28.3042 58.6209 28.4199 58.6455 28.532C58.6713 28.6452 58.7366 28.756 58.8425 28.8668Z" fill="black"/>
<path d="M57.4616 26.8434C57.9925 26.5369 58.5273 26.3182 59.0652 26.1873C59.6031 26.0567 60.1289 25.9944 60.642 26.0004C61.155 26.0067 61.649 26.0751 62.1232 26.2059C62.5976 26.3368 63.0364 26.5063 63.44 26.7146C63.7585 26.8825 64.0842 27.0621 64.4169 27.2542C64.7496 27.4463 65.0538 27.6303 65.3302 27.8059C65.6911 28.0389 65.9849 28.2924 66.2114 28.5661C66.4381 28.8399 66.5565 29.1252 66.5673 29.4212C66.5779 29.7176 66.47 30.0212 66.2435 30.3317C66.0168 30.6422 65.6381 30.951 65.1072 31.2574C64.5764 31.564 64.0418 31.7825 63.5038 31.9134C62.966 32.0442 62.4402 32.1065 61.9269 32.1004C61.4139 32.0944 60.9197 32.0259 60.4458 31.8949C59.9713 31.7642 59.5325 31.5945 59.1288 31.3862C58.8243 31.2268 58.5061 31.0511 58.1733 30.8589C57.8405 30.6669 57.5289 30.4789 57.2386 30.2949C56.8777 30.0618 56.5838 29.8086 56.3575 29.5345C56.1307 29.2609 56.0124 28.9758 56.0017 28.6794C55.9911 28.3832 56.0991 28.0797 56.3254 27.7691C56.5521 27.4585 56.9307 27.1499 57.4616 26.8434ZM63.3125 28.9094C62.739 28.5458 62.1444 28.2025 61.5285 27.8795C61.3376 27.7855 61.1479 27.7069 60.9606 27.6434C60.7729 27.5801 60.5818 27.5413 60.3871 27.5269C60.1926 27.5127 59.9921 27.5279 59.787 27.5729C59.5816 27.6179 59.3731 27.7017 59.1605 27.8243C58.9483 27.9469 58.8031 28.0675 58.7252 28.186C58.6474 28.3046 58.6209 28.4201 58.6455 28.5324C58.6706 28.6449 58.736 28.7561 58.842 28.8666C58.9483 28.9769 59.0864 29.0854 59.2562 29.1914C59.8083 29.5512 60.4031 29.8946 61.0402 30.2214C61.2242 30.3195 61.4101 30.4001 61.5977 30.4635C61.785 30.5269 61.9781 30.5648 62.1763 30.5768C62.3747 30.5891 62.5764 30.5728 62.7816 30.5277C62.987 30.4828 63.1959 30.3991 63.4081 30.2764C63.6207 30.1538 63.7656 30.0332 63.8434 29.9146C63.9212 29.7962 63.9498 29.6797 63.9284 29.5652C63.9071 29.4508 63.8416 29.3394 63.7321 29.2311C63.622 29.1231 63.4823 29.0158 63.3125 28.9094Z" fill="#FF401F"/>
<defs>
<linearGradient id="paint0_linear_35_2" x1="41.8122" y1="30.8516" x2="28.8533" y2="8.40615" gradientUnits="userSpaceOnUse">
<stop stop-color="#BFBFBF"/>
<stop offset="0.224324" stop-color="#D6D6D6"/>
<stop offset="0.87027" stop-color="#E6E6E6"/>
<stop offset="1" stop-color="#F5F5F5"/>
</linearGradient>
</defs>
</svg>
