<svg width="288" height="192" viewBox="0 0 288 192" fill="none" xmlns="http://www.w3.org/2000/svg">
    <path d="M83 46H165.5C169.918 46 173.5 49.5817 173.5 54V97V141.5C173.5 145.918 169.918 149.5 165.5 149.5H85.5"
        stroke="#A1A1A1" stroke-linejoin="round" stroke-dasharray="4 4" />
    <g filter="url(#filter0_d_7_498)">
        <rect x="35" y="12" width="52" height="65" rx="8" fill="white" />
        <rect x="35.5" y="12.5" width="51" height="64" rx="7.5" stroke="black" stroke-opacity="0.15" />
    </g>
    <rect x="46.375" y="64.8125" width="1.31844" height="6.09371" rx="0.659221" fill="#D9D9D9" />
    <rect x="66.6875" y="64.8125" width="1.31844" height="6.09371" rx="0.659221" fill="#D9D9D9" />
    <rect x="49.625" y="64.8125" width="0.753396" height="6.09371" rx="0.376698" fill="#D9D9D9" />
    <rect x="69.9375" y="64.8125" width="0.753396" height="6.09371" rx="0.376698" fill="#D9D9D9" />
    <rect x="72.375" y="64.8125" width="0.56875" height="6.09371" rx="0.284375" fill="#D9D9D9" />
    <rect x="56.9375" y="64.8125" width="0.56875" height="6.09371" rx="0.284375" fill="#D9D9D9" />
    <rect x="61.8125" y="64.8125" width="0.565047" height="6.09371" rx="0.282523" fill="#D9D9D9" />
    <rect x="64.25" y="64.8125" width="0.565047" height="6.09371" rx="0.282523" fill="#D9D9D9" />
    <rect x="54.5" y="64.8125" width="0.56875" height="6.09371" rx="0.284375" fill="#D9D9D9" />
    <rect x="52.0625" y="64.8125" width="0.941745" height="6.09371" rx="0.470872" fill="#D9D9D9" />
    <rect x="59.375" y="64.8125" width="0.941745" height="6.09371" rx="0.470872" fill="#D9D9D9" />
    <g clip-path="url(#clip0_7_498)">
        <path
            d="M51.25 25.8125H52.0625C52.4935 25.8125 52.9068 25.9837 53.2115 26.2885C53.5163 26.5932 53.6875 27.0065 53.6875 27.4375V29.875C53.6875 30.1982 53.8159 30.5082 54.0445 30.7368C54.273 30.9653 54.583 31.0938 54.9062 31.0938C55.2295 31.0938 55.5395 30.9653 55.768 30.7368C55.9966 30.5082 56.125 30.1982 56.125 29.875V24.1875L53.6875 21.75"
            stroke="black" stroke-linecap="round" stroke-linejoin="round" />
        <path
            d="M43.125 33.125V21.75C43.125 21.319 43.2962 20.9057 43.601 20.601C43.9057 20.2962 44.319 20.125 44.75 20.125H49.625C50.056 20.125 50.4693 20.2962 50.774 20.601C51.0788 20.9057 51.25 21.319 51.25 21.75V33.125"
            stroke="black" stroke-linecap="round" stroke-linejoin="round" />
        <path d="M42.3125 33.125H52.0625" stroke="black" stroke-linecap="round" stroke-linejoin="round" />
        <path
            d="M54.5 22.5625V23.375C54.5 23.5905 54.5856 23.7972 54.738 23.9495C54.8903 24.1019 55.097 24.1875 55.3125 24.1875H56.125"
            stroke="black" stroke-linecap="round" stroke-linejoin="round" />
        <path d="M43.125 25.8125H51.25" stroke="black" stroke-linecap="round" stroke-linejoin="round" />
    </g>
    <rect x="39.875" y="41.9736" width="21.6477" height="2.64062" rx="1.32031" fill="#D9D9D9" />
    <rect x="39.875" y="47.8643" width="21.6477" height="2.64062" rx="1.32031" fill="#D9D9D9" />
    <rect x="39.875" y="53.7549" width="21.6477" height="2.64062" rx="1.32031" fill="#D9D9D9" />
    <rect x="69.6191" y="41.9736" width="8.86364" height="2.64062" rx="1.32031" fill="#D9D9D9" />
    <rect x="69.6191" y="47.8643" width="8.86364" height="2.64062" rx="1.32031" fill="#D9D9D9" />
    <g filter="url(#filter1_d_7_498)">
        <rect x="35" y="115" width="52" height="65" rx="8" fill="white" />
        <rect x="35.5" y="115.5" width="51" height="64" rx="7.5" stroke="black" stroke-opacity="0.15" />
    </g>
    <rect x="46.375" y="167.812" width="1.31844" height="6.09371" rx="0.659221" fill="#D9D9D9" />
    <rect x="66.6875" y="167.812" width="1.31844" height="6.09371" rx="0.659221" fill="#D9D9D9" />
    <rect x="49.625" y="167.812" width="0.753396" height="6.09371" rx="0.376698" fill="#D9D9D9" />
    <rect x="69.9375" y="167.812" width="0.753396" height="6.09371" rx="0.376698" fill="#D9D9D9" />
    <rect x="72.375" y="167.812" width="0.56875" height="6.09371" rx="0.284375" fill="#D9D9D9" />
    <rect x="56.9375" y="167.812" width="0.56875" height="6.09371" rx="0.284375" fill="#D9D9D9" />
    <rect x="61.8125" y="167.812" width="0.565047" height="6.09371" rx="0.282523" fill="#D9D9D9" />
    <rect x="64.25" y="167.812" width="0.565047" height="6.09371" rx="0.282523" fill="#D9D9D9" />
    <rect x="54.5" y="167.812" width="0.56875" height="6.09371" rx="0.284375" fill="#D9D9D9" />
    <rect x="52.0625" y="167.812" width="0.941745" height="6.09371" rx="0.470872" fill="#D9D9D9" />
    <rect x="59.375" y="167.812" width="0.941745" height="6.09371" rx="0.470872" fill="#D9D9D9" />
    <g clip-path="url(#clip1_7_498)">
        <path
            d="M43.125 135.312C43.125 135.743 43.2962 136.157 43.601 136.462C43.9057 136.766 44.319 136.938 44.75 136.938C45.181 136.938 45.5943 136.766 45.899 136.462C46.2038 136.157 46.375 135.743 46.375 135.312C46.375 134.882 46.2038 134.468 45.899 134.163C45.5943 133.859 45.181 133.688 44.75 133.688C44.319 133.688 43.9057 133.859 43.601 134.163C43.2962 134.468 43.125 134.882 43.125 135.312Z"
            stroke="black" stroke-linecap="round" stroke-linejoin="round" />
        <path
            d="M52.0625 135.312C52.0625 135.743 52.2337 136.157 52.5385 136.462C52.8432 136.766 53.2565 136.938 53.6875 136.938C54.1185 136.938 54.5318 136.766 54.8365 136.462C55.1413 136.157 55.3125 135.743 55.3125 135.312C55.3125 134.882 55.1413 134.468 54.8365 134.163C54.5318 133.859 54.1185 133.688 53.6875 133.688C53.2565 133.688 52.8432 133.859 52.5385 134.163C52.2337 134.468 52.0625 134.882 52.0625 135.312Z"
            stroke="black" stroke-linecap="round" stroke-linejoin="round" />
        <path d="M53.6875 133.688H44.75V122.312H43.125" stroke="black" stroke-linecap="round" stroke-linejoin="round" />
        <path d="M44.75 123.938L56.125 124.75L55.3125 130.438H44.75" stroke="black" stroke-linecap="round"
            stroke-linejoin="round" />
    </g>
    <rect x="39.875" y="144.974" width="21.6477" height="2.64062" rx="1.32031" fill="#D9D9D9" />
    <rect x="39.875" y="150.864" width="21.6477" height="2.64062" rx="1.32031" fill="#D9D9D9" />
    <rect x="39.875" y="156.755" width="21.6477" height="2.64062" rx="1.32031" fill="#D9D9D9" />
    <rect x="69.6191" y="144.974" width="8.86364" height="2.64062" rx="1.32031" fill="#D9D9D9" />
    <rect x="69.6191" y="150.864" width="8.86364" height="2.64062" rx="1.32031" fill="#D9D9D9" />
    <rect x="143" y="34" width="24" height="24" rx="12" fill="#F3F4F6" />
    <rect x="143.5" y="34.5" width="23" height="23" rx="11.5" stroke="black" stroke-opacity="0.1" />
    <rect x="139" y="34" width="24" height="24" rx="12" fill="#F3F4F6" />
    <rect x="139.5" y="34.5" width="23" height="23" rx="11.5" stroke="black" stroke-opacity="0.1" />
    <rect x="135" y="34" width="24" height="24" rx="12" fill="#F3F4F6" />
    <rect x="135.5" y="34.5" width="23" height="23" rx="11.5" stroke="black" stroke-opacity="0.1" />
    <g clip-path="url(#clip2_7_498)">
        <path
            d="M144.333 42.6667C144.333 43.3739 144.614 44.0522 145.114 44.5523C145.614 45.0524 146.292 45.3333 147 45.3333C147.707 45.3333 148.385 45.0524 148.885 44.5523C149.385 44.0522 149.666 43.3739 149.666 42.6667C149.666 41.9594 149.385 41.2811 148.885 40.781C148.385 40.281 147.707 40 147 40C146.292 40 145.614 40.281 145.114 40.781C144.614 41.2811 144.333 41.9594 144.333 42.6667Z"
            stroke="black" stroke-linecap="round" stroke-linejoin="round" />
        <path
            d="M143 52V50.6667C143 49.9594 143.281 49.2811 143.781 48.781C144.281 48.281 144.959 48 145.667 48H148.333C149.041 48 149.719 48.281 150.219 48.781C150.719 49.2811 151 49.9594 151 50.6667V52"
            stroke="black" stroke-linecap="round" stroke-linejoin="round" />
    </g>
    <rect x="143" y="137" width="24" height="24" rx="12" fill="#F3F4F6" />
    <rect x="143.5" y="137.5" width="23" height="23" rx="11.5" stroke="black" stroke-opacity="0.1" />
    <rect x="139" y="137" width="24" height="24" rx="12" fill="#F3F4F6" />
    <rect x="139.5" y="137.5" width="23" height="23" rx="11.5" stroke="black" stroke-opacity="0.1" />
    <rect x="135" y="137" width="24" height="24" rx="12" fill="#F3F4F6" />
    <rect x="135.5" y="137.5" width="23" height="23" rx="11.5" stroke="black" stroke-opacity="0.1" />
    <g clip-path="url(#clip3_7_498)">
        <path
            d="M144.333 145.667C144.333 146.374 144.614 147.052 145.114 147.552C145.614 148.052 146.292 148.333 147 148.333C147.707 148.333 148.385 148.052 148.885 147.552C149.385 147.052 149.666 146.374 149.666 145.667C149.666 144.959 149.385 144.281 148.885 143.781C148.385 143.281 147.707 143 147 143C146.292 143 145.614 143.281 145.114 143.781C144.614 144.281 144.333 144.959 144.333 145.667Z"
            stroke="black" stroke-linecap="round" stroke-linejoin="round" />
        <path
            d="M143 155V153.667C143 152.959 143.281 152.281 143.781 151.781C144.281 151.281 144.959 151 145.667 151H148.333C149.041 151 149.719 151.281 150.219 151.781C150.719 152.281 151 152.959 151 153.667V155"
            stroke="black" stroke-linecap="round" stroke-linejoin="round" />
    </g>
    <g filter="url(#filter2_d_7_498)">
        <rect x="167" y="58" width="85" height="79" rx="8" fill="white" />
        <rect x="167.5" y="58.5" width="84" height="78" rx="7.5" stroke="black" stroke-opacity="0.15" />
    </g>
    <rect x="218" y="65" width="24" height="24" rx="4" fill="#F3F4F6" />
    <rect x="218.5" y="65.5" width="23" height="23" rx="3.5" stroke="black" stroke-opacity="0.1" />
    <g clip-path="url(#clip4_7_498)">
        <path
            d="M233.702 80.1667C232.764 79.2291 231.492 78.7024 230.166 78.7024C228.84 78.7024 227.569 79.2291 226.631 80.1667"
            stroke="black" stroke-linecap="round" stroke-linejoin="round" />
        <path
            d="M234 71.5359C233.081 71.0055 231.99 70.8617 230.965 71.1363C229.94 71.4108 229.067 72.0812 228.536 72.9999L235.464 76.9999C235.995 76.0812 236.138 74.9894 235.864 73.9647C235.589 72.94 234.919 72.0663 234 71.5359Z"
            stroke="black" stroke-linecap="round" stroke-linejoin="round" />
        <path
            d="M233.155 75.6668C234.26 73.7534 234.638 71.9041 234 71.5361C233.362 71.1681 231.95 72.4201 230.846 74.3334"
            stroke="black" stroke-linecap="round" stroke-linejoin="round" />
        <path d="M232 75L230 78.464" stroke="black" stroke-linecap="round" stroke-linejoin="round" />
        <path
            d="M224 81.8333C224.208 81.7301 224.435 81.6732 224.667 81.6666C224.926 81.6612 225.183 81.719 225.416 81.8352C225.648 81.9513 225.849 82.1223 226 82.3333C226.151 82.5443 226.352 82.7152 226.584 82.8314C226.817 82.9475 227.074 83.0054 227.333 82.9999C227.593 83.0054 227.85 82.9475 228.082 82.8314C228.315 82.7152 228.515 82.5443 228.667 82.3333C228.818 82.1223 229.019 81.9513 229.251 81.8352C229.483 81.719 229.74 81.6612 230 81.6666C230.26 81.6612 230.517 81.719 230.749 81.8352C230.981 81.9513 231.182 82.1223 231.333 82.3333C231.485 82.5443 231.685 82.7152 231.918 82.8314C232.15 82.9475 232.407 83.0054 232.667 82.9999C232.926 83.0054 233.183 82.9475 233.416 82.8314C233.648 82.7152 233.849 82.5443 234 82.3333C234.151 82.1223 234.352 81.9513 234.584 81.8352C234.817 81.719 235.074 81.6612 235.333 81.6666C235.565 81.6732 235.792 81.7301 236 81.8333"
            stroke="black" stroke-linecap="round" stroke-linejoin="round" />
    </g>
    <rect x="178" y="98" width="63.5887" height="2.00806" rx="1.00403" fill="#D9D9D9" />
    <rect x="213.476" y="110.048" width="28.7823" height="2.00806" rx="1.00403" fill="#D9D9D9" />
    <rect x="178" y="110.048" width="28.7823" height="2.00806" rx="1.00403" fill="#D9D9D9" />
    <rect x="178" y="122.097" width="64.2581" height="2.00806" rx="1.00403" fill="#D9D9D9" />
    <defs>
        <filter id="filter0_d_7_498" x="33" y="12" width="56" height="69" filterUnits="userSpaceOnUse"
            color-interpolation-filters="sRGB">
            <feFlood flood-opacity="0" result="BackgroundImageFix" />
            <feColorMatrix in="SourceAlpha" type="matrix" values="0 0 0 0 0 0 0 0 0 0 0 0 0 0 0 0 0 0 127 0"
                result="hardAlpha" />
            <feOffset dy="2" />
            <feGaussianBlur stdDeviation="1" />
            <feComposite in2="hardAlpha" operator="out" />
            <feColorMatrix type="matrix" values="0 0 0 0 0 0 0 0 0 0 0 0 0 0 0 0 0 0 0.1 0" />
            <feBlend mode="normal" in2="BackgroundImageFix" result="effect1_dropShadow_7_498" />
            <feBlend mode="normal" in="SourceGraphic" in2="effect1_dropShadow_7_498" result="shape" />
        </filter>
        <filter id="filter1_d_7_498" x="33" y="115" width="56" height="69" filterUnits="userSpaceOnUse"
            color-interpolation-filters="sRGB">
            <feFlood flood-opacity="0" result="BackgroundImageFix" />
            <feColorMatrix in="SourceAlpha" type="matrix" values="0 0 0 0 0 0 0 0 0 0 0 0 0 0 0 0 0 0 127 0"
                result="hardAlpha" />
            <feOffset dy="2" />
            <feGaussianBlur stdDeviation="1" />
            <feComposite in2="hardAlpha" operator="out" />
            <feColorMatrix type="matrix" values="0 0 0 0 0 0 0 0 0 0 0 0 0 0 0 0 0 0 0.1 0" />
            <feBlend mode="normal" in2="BackgroundImageFix" result="effect1_dropShadow_7_498" />
            <feBlend mode="normal" in="SourceGraphic" in2="effect1_dropShadow_7_498" result="shape" />
        </filter>
        <filter id="filter2_d_7_498" x="165" y="58" width="89" height="83" filterUnits="userSpaceOnUse"
            color-interpolation-filters="sRGB">
            <feFlood flood-opacity="0" result="BackgroundImageFix" />
            <feColorMatrix in="SourceAlpha" type="matrix" values="0 0 0 0 0 0 0 0 0 0 0 0 0 0 0 0 0 0 127 0"
                result="hardAlpha" />
            <feOffset dy="2" />
            <feGaussianBlur stdDeviation="1" />
            <feComposite in2="hardAlpha" operator="out" />
            <feColorMatrix type="matrix" values="0 0 0 0 0 0 0 0 0 0 0 0 0 0 0 0 0 0 0.1 0" />
            <feBlend mode="normal" in2="BackgroundImageFix" result="effect1_dropShadow_7_498" />
            <feBlend mode="normal" in="SourceGraphic" in2="effect1_dropShadow_7_498" result="shape" />
        </filter>
        <clipPath id="clip0_7_498">
            <rect width="19.5" height="19.5" fill="white" transform="translate(39.875 16.875)" />
        </clipPath>
        <clipPath id="clip1_7_498">
            <rect width="19.5" height="19.5" fill="white" transform="translate(39.875 119.875)" />
        </clipPath>
        <clipPath id="clip2_7_498">
            <rect width="16" height="16" fill="white" transform="translate(139 38)" />
        </clipPath>
        <clipPath id="clip3_7_498">
            <rect width="16" height="16" fill="white" transform="translate(139 141)" />
        </clipPath>
        <clipPath id="clip4_7_498">
            <rect width="16" height="16" fill="white" transform="translate(222 69)" />
        </clipPath>
    </defs>
</svg>