<svg width="288" height="192" viewBox="0 0 288 192" fill="none" xmlns="http://www.w3.org/2000/svg">
    <g filter="url(#filter0_d_7_498)">
        <rect x="154" y="51" width="118" height="97" rx="8" fill="white" />
        <rect x="154.5" y="51.5" width="117" height="96" rx="7.5" stroke="black" stroke-opacity="0.15" />
    </g>
    <path fill-rule="evenodd" clip-rule="evenodd"
        d="M164 73C164 70.7909 165.791 69 168 69H260C262.209 69 264 70.7909 264 73V73C264 75.2091 262.209 77 260 77H168C165.791 77 164 75.2091 164 73V73Z"
        fill="#D9D9D9" />
    <path fill-rule="evenodd" clip-rule="evenodd"
        d="M164 105C164 102.791 165.791 101 168 101H260C262.209 101 264 102.791 264 105V105C264 107.209 262.209 109 260 109H168C165.791 109 164 107.209 164 105V105Z"
        fill="#D9D9D9" />
    <path fill-rule="evenodd" clip-rule="evenodd"
        d="M164 121C164 118.791 165.791 117 168 117H260C262.209 117 264 118.791 264 121V133C264 135.209 262.209 137 260 137H168C165.791 137 164 135.209 164 133V121Z"
        fill="#D9D9D9" />
    <path fill-rule="evenodd" clip-rule="evenodd"
        d="M164 89C164 86.7909 165.791 85 168 85H209C211.209 85 213 86.7909 213 89V89C213 91.2091 211.209 93 209 93H168C165.791 93 164 91.2091 164 89V89Z"
        fill="#D9D9D9" />
    <path fill-rule="evenodd" clip-rule="evenodd"
        d="M221 89C221 86.7909 222.791 85 225 85H260C262.209 85 264 86.7909 264 89V89C264 91.2091 262.209 93 260 93H225C222.791 93 221 91.2091 221 89V89Z"
        fill="#D9D9D9" />
    <rect x="240" y="34" width="24.0968" height="24.0968" rx="4" fill="#F3F4F6" />
    <rect x="240.5" y="34.5" width="23.0968" height="23.0968" rx="3.5" stroke="black" stroke-opacity="0.1" />
    <g clip-path="url(#clip0_7_498)">
        <path
            d="M252.049 40.0242C256.868 40.0242 258.073 41.229 258.073 46.0484C258.073 50.8677 256.868 52.0726 252.049 52.0726C247.229 52.0726 246.024 50.8677 246.024 46.0484C246.024 41.229 247.229 40.0242 252.049 40.0242Z"
            stroke="black" stroke-linecap="round" stroke-linejoin="round" />
        <path d="M254.057 46.0483H250.041" stroke="black" stroke-linecap="round" stroke-linejoin="round" />
        <path d="M252.049 44.0403V48.0564" stroke="black" stroke-linecap="round" stroke-linejoin="round" />
    </g>
    <g filter="url(#filter1_d_7_498)">
        <rect x="16.001" y="82" width="94.379" height="37.4839" rx="8" fill="white" />
        <rect x="16.501" y="82.5" width="93.379" height="36.4839" rx="7.5" stroke="black" stroke-opacity="0.15" />
    </g>
    <rect x="86.2832" y="92.7097" width="16.0645" height="16.0645" rx="8.03226" fill="#F3F4F6" />
    <rect x="86.7832" y="93.2097" width="15.0645" height="15.0645" rx="7.53226" stroke="black" stroke-opacity="0.1" />
    <g clip-path="url(#clip1_7_498)">
        <path
            d="M92.5303 98.5108C92.5303 98.9842 92.7183 99.4382 93.0531 99.7729C93.3878 100.108 93.8418 100.296 94.3152 100.296C94.7886 100.296 95.2426 100.108 95.5774 99.7729C95.9121 99.4382 96.1002 98.9842 96.1002 98.5108C96.1002 98.0374 95.9121 97.5834 95.5774 97.2486C95.2426 96.9139 94.7886 96.7258 94.3152 96.7258C93.8418 96.7258 93.3878 96.9139 93.0531 97.2486C92.7183 97.5834 92.5303 98.0374 92.5303 98.5108Z"
            stroke="black" stroke-linecap="round" stroke-linejoin="round" />
        <path
            d="M91.6377 104.758V103.866C91.6377 103.392 91.8258 102.938 92.1605 102.604C92.4952 102.269 92.9492 102.081 93.4226 102.081H95.2076C95.681 102.081 96.135 102.269 96.4697 102.604C96.8045 102.938 96.9925 103.392 96.9925 103.866V104.758"
            stroke="black" stroke-linecap="round" stroke-linejoin="round" />
    </g>
    <rect x="37.4365" y="100.073" width="41.5" height="2.00806" rx="1.00403" fill="#D9D9D9" />
    <g filter="url(#filter2_d_7_498)">
        <rect x="16.001" y="134" width="94.379" height="37.4839" rx="8" fill="white" />
        <rect x="16.501" y="134.5" width="93.379" height="36.4839" rx="7.5" stroke="black" stroke-opacity="0.15" />
    </g>
    <rect x="86.2832" y="144.71" width="16.0645" height="16.0645" rx="8.03226" fill="#F3F4F6" />
    <rect x="86.7832" y="145.21" width="15.0645" height="15.0645" rx="7.53226" stroke="black" stroke-opacity="0.1" />
    <g clip-path="url(#clip2_7_498)">
        <path
            d="M92.5303 150.511C92.5303 150.984 92.7183 151.438 93.0531 151.773C93.3878 152.108 93.8418 152.296 94.3152 152.296C94.7886 152.296 95.2426 152.108 95.5774 151.773C95.9121 151.438 96.1002 150.984 96.1002 150.511C96.1002 150.037 95.9121 149.583 95.5774 149.249C95.2426 148.914 94.7886 148.726 94.3152 148.726C93.8418 148.726 93.3878 148.914 93.0531 149.249C92.7183 149.583 92.5303 150.037 92.5303 150.511Z"
            stroke="black" stroke-linecap="round" stroke-linejoin="round" />
        <path
            d="M91.6377 156.758V155.866C91.6377 155.392 91.8258 154.938 92.1605 154.604C92.4952 154.269 92.9492 154.081 93.4226 154.081H95.2076C95.681 154.081 96.135 154.269 96.4697 154.604C96.8045 154.938 96.9925 155.392 96.9925 155.866V156.758"
            stroke="black" stroke-linecap="round" stroke-linejoin="round" />
    </g>
    <rect x="37.4365" y="152.073" width="41.5" height="2.00806" rx="1.00403" fill="#D9D9D9" />
    <g filter="url(#filter3_d_7_498)">
        <rect x="16.001" y="30" width="94.379" height="37.4839" rx="8" fill="white" />
        <rect x="16.501" y="30.5" width="93.379" height="36.4839" rx="7.5" stroke="black" stroke-opacity="0.15" />
    </g>
    <rect x="86.2832" y="40.7097" width="16.0645" height="16.0645" rx="8.03226" fill="#F3F4F6" />
    <rect x="86.7832" y="41.2097" width="15.0645" height="15.0645" rx="7.53226" stroke="black" stroke-opacity="0.1" />
    <g clip-path="url(#clip3_7_498)">
        <path
            d="M92.5303 46.5108C92.5303 46.9842 92.7183 47.4382 93.0531 47.7729C93.3878 48.1077 93.8418 48.2957 94.3152 48.2957C94.7886 48.2957 95.2426 48.1077 95.5774 47.7729C95.9121 47.4382 96.1002 46.9842 96.1002 46.5108C96.1002 46.0374 95.9121 45.5834 95.5774 45.2486C95.2426 44.9139 94.7886 44.7258 94.3152 44.7258C93.8418 44.7258 93.3878 44.9139 93.0531 45.2486C92.7183 45.5834 92.5303 46.0374 92.5303 46.5108Z"
            stroke="black" stroke-linecap="round" stroke-linejoin="round" />
        <path
            d="M91.6377 52.7582V51.8658C91.6377 51.3924 91.8258 50.9384 92.1605 50.6036C92.4952 50.2689 92.9492 50.0808 93.4226 50.0808H95.2076C95.681 50.0808 96.135 50.2689 96.4697 50.6036C96.8045 50.9384 96.9925 51.3924 96.9925 51.8658V52.7582"
            stroke="black" stroke-linecap="round" stroke-linejoin="round" />
    </g>
    <rect x="37.4365" y="48.0725" width="41.5" height="2.00806" rx="1.00403" fill="#D9D9D9" />
    <path d="M11 101V101C6.58172 101 3 104.582 3 109V145C3 149.418 6.58172 153 11 153V153" stroke="#D9D9D9"
        stroke-width="1.5" />
    <path
        d="M8.75 154.71C8.7502 154.897 8.94799 155.018 9.11426 154.933L12.4521 153.223C12.6336 153.13 12.6336 152.87 12.4521 152.777L9.11426 151.068C8.94791 150.983 8.75001 151.104 8.75 151.291V154.71Z"
        fill="#D9D9D9" stroke="#D9D9D9" stroke-width="1.5" />
    <path
        d="M9.25 101C9.25 101.966 10.0335 102.75 11 102.75C11.9665 102.75 12.75 101.966 12.75 101C12.75 100.034 11.9665 99.25 11 99.25C10.0335 99.25 9.25 100.034 9.25 101Z"
        fill="#D9D9D9" stroke="#D9D9D9" stroke-width="1.5" />
    <path d="M138 156L138 24C138 18.4772 133.523 14 128 14L85 14" stroke="#D9D9D9" stroke-width="1.5" />
    <path d="M65 25L65 20C65 16.6863 67.6863 14 71 14L85 14" stroke="#D9D9D9" stroke-width="1.5" />
    <path
        d="M65 23.25C64.0335 23.25 63.25 24.0335 63.25 25C63.25 25.9665 64.0335 26.75 65 26.75C65.9665 26.75 66.75 25.9665 66.75 25C66.75 24.0335 65.9665 23.25 65 23.25Z"
        fill="#D9D9D9" stroke="#D9D9D9" stroke-width="1.5" />
    <path d="M115 48V48C119.418 48 123 51.5817 123 56V92C123 96.4183 119.418 100 115 100V100" stroke="#D9D9D9"
        stroke-width="1.5" />
    <path
        d="M117.25 101.71C117.25 101.897 117.052 102.018 116.886 101.933L113.548 100.223C113.366 100.13 113.366 99.8702 113.548 99.7773L116.886 98.0684C117.052 97.9832 117.25 98.1041 117.25 98.291V101.71Z"
        fill="#D9D9D9" stroke="#D9D9D9" stroke-width="1.5" />
    <path
        d="M116.75 48C116.75 48.9665 115.966 49.75 115 49.75C114.034 49.75 113.25 48.9665 113.25 48C113.25 47.0335 114.034 46.25 115 46.25C115.966 46.25 116.75 47.0335 116.75 48Z"
        fill="#D9D9D9" stroke="#D9D9D9" stroke-width="1.5" />
    <path d="M218 153L218 159C218 162.314 215.314 165 212 165L144 165C140.686 165 138 162.314 138 159L138 153"
        stroke="#D9D9D9" stroke-width="1.5" />
    <path
        d="M218 154.75C217.034 154.75 216.25 153.966 216.25 153C216.25 152.034 217.034 151.25 218 151.25C218.966 151.25 219.75 152.034 219.75 153C219.75 153.966 218.966 154.75 218 154.75Z"
        fill="#D9D9D9" stroke="#D9D9D9" stroke-width="1.5" />
    <defs>
        <filter id="filter0_d_7_498" x="152" y="51" width="122" height="101" filterUnits="userSpaceOnUse"
            color-interpolation-filters="sRGB">
            <feFlood flood-opacity="0" result="BackgroundImageFix" />
            <feColorMatrix in="SourceAlpha" type="matrix" values="0 0 0 0 0 0 0 0 0 0 0 0 0 0 0 0 0 0 127 0"
                result="hardAlpha" />
            <feOffset dy="2" />
            <feGaussianBlur stdDeviation="1" />
            <feComposite in2="hardAlpha" operator="out" />
            <feColorMatrix type="matrix" values="0 0 0 0 0 0 0 0 0 0 0 0 0 0 0 0 0 0 0.1 0" />
            <feBlend mode="normal" in2="BackgroundImageFix" result="effect1_dropShadow_7_498" />
            <feBlend mode="normal" in="SourceGraphic" in2="effect1_dropShadow_7_498" result="shape" />
        </filter>
        <filter id="filter1_d_7_498" x="14.001" y="82" width="98.3789" height="41.4839" filterUnits="userSpaceOnUse"
            color-interpolation-filters="sRGB">
            <feFlood flood-opacity="0" result="BackgroundImageFix" />
            <feColorMatrix in="SourceAlpha" type="matrix" values="0 0 0 0 0 0 0 0 0 0 0 0 0 0 0 0 0 0 127 0"
                result="hardAlpha" />
            <feOffset dy="2" />
            <feGaussianBlur stdDeviation="1" />
            <feComposite in2="hardAlpha" operator="out" />
            <feColorMatrix type="matrix" values="0 0 0 0 0 0 0 0 0 0 0 0 0 0 0 0 0 0 0.1 0" />
            <feBlend mode="normal" in2="BackgroundImageFix" result="effect1_dropShadow_7_498" />
            <feBlend mode="normal" in="SourceGraphic" in2="effect1_dropShadow_7_498" result="shape" />
        </filter>
        <filter id="filter2_d_7_498" x="14.001" y="134" width="98.3789" height="41.4839" filterUnits="userSpaceOnUse"
            color-interpolation-filters="sRGB">
            <feFlood flood-opacity="0" result="BackgroundImageFix" />
            <feColorMatrix in="SourceAlpha" type="matrix" values="0 0 0 0 0 0 0 0 0 0 0 0 0 0 0 0 0 0 127 0"
                result="hardAlpha" />
            <feOffset dy="2" />
            <feGaussianBlur stdDeviation="1" />
            <feComposite in2="hardAlpha" operator="out" />
            <feColorMatrix type="matrix" values="0 0 0 0 0 0 0 0 0 0 0 0 0 0 0 0 0 0 0.1 0" />
            <feBlend mode="normal" in2="BackgroundImageFix" result="effect1_dropShadow_7_498" />
            <feBlend mode="normal" in="SourceGraphic" in2="effect1_dropShadow_7_498" result="shape" />
        </filter>
        <filter id="filter3_d_7_498" x="14.001" y="30" width="98.3789" height="41.4839" filterUnits="userSpaceOnUse"
            color-interpolation-filters="sRGB">
            <feFlood flood-opacity="0" result="BackgroundImageFix" />
            <feColorMatrix in="SourceAlpha" type="matrix" values="0 0 0 0 0 0 0 0 0 0 0 0 0 0 0 0 0 0 127 0"
                result="hardAlpha" />
            <feOffset dy="2" />
            <feGaussianBlur stdDeviation="1" />
            <feComposite in2="hardAlpha" operator="out" />
            <feColorMatrix type="matrix" values="0 0 0 0 0 0 0 0 0 0 0 0 0 0 0 0 0 0 0.1 0" />
            <feBlend mode="normal" in2="BackgroundImageFix" result="effect1_dropShadow_7_498" />
            <feBlend mode="normal" in="SourceGraphic" in2="effect1_dropShadow_7_498" result="shape" />
        </filter>
        <clipPath id="clip0_7_498">
            <rect width="16.0645" height="16.0645" fill="white" transform="translate(244.017 38.0161)" />
        </clipPath>
        <clipPath id="clip1_7_498">
            <rect width="10.7097" height="10.7097" fill="white" transform="translate(88.96 95.3872)" />
        </clipPath>
        <clipPath id="clip2_7_498">
            <rect width="10.7097" height="10.7097" fill="white" transform="translate(88.96 147.387)" />
        </clipPath>
        <clipPath id="clip3_7_498">
            <rect width="10.7097" height="10.7097" fill="white" transform="translate(88.96 43.3872)" />
        </clipPath>
    </defs>
</svg>