<svg width="288" height="192" viewBox="0 0 288 192" fill="none" xmlns="http://www.w3.org/2000/svg">
    <g filter="url(#filter0_d_7_498)">
        <rect x="154" y="74.0483" width="85.0081" height="56.2258" rx="8" fill="white" />
        <rect x="154.5" y="74.5483" width="84.0081" height="55.2258" rx="7.5" stroke="black" stroke-opacity="0.15" />
    </g>
    <rect x="168.726" y="94.1292" width="63.5887" height="2.00806" rx="1.00403" fill="#D9D9D9" />
    <rect x="204.201" y="106.177" width="28.7823" height="2.00806" rx="1.00403" fill="#D9D9D9" />
    <rect x="168.726" y="106.177" width="28.7823" height="2.00806" rx="1.00403" fill="#D9D9D9" />
    <rect x="168.726" y="118.226" width="64.2581" height="2.00806" rx="1.00403" fill="#D9D9D9" />
    <rect x="208.887" y="62" width="24.0968" height="24.0968" rx="4" fill="#F3F4F6" />
    <rect x="209.387" y="62.5" width="23.0968" height="23.0968" rx="3.5" stroke="black" stroke-opacity="0.1" />
    <g clip-path="url(#clip0_7_498)">
        <path
            d="M220.935 68.0242C225.755 68.0242 226.96 69.229 226.96 74.0484C226.96 78.8677 225.755 80.0726 220.935 80.0726C216.116 80.0726 214.911 78.8677 214.911 74.0484C214.911 69.229 216.116 68.0242 220.935 68.0242Z"
            stroke="black" stroke-linecap="round" stroke-linejoin="round" />
        <path d="M222.944 74.0483H218.928" stroke="black" stroke-linecap="round" stroke-linejoin="round" />
        <path d="M220.936 72.0403V76.0564" stroke="black" stroke-linecap="round" stroke-linejoin="round" />
    </g>
    <g filter="url(#filter1_d_7_498)">
        <rect x="78.6455" y="48" width="94.379" height="37.4839" rx="8" fill="white" />
        <rect x="79.1455" y="48.5" width="93.379" height="36.4839" rx="7.5" stroke="black" stroke-opacity="0.15" />
    </g>
    <rect x="148.928" y="58.7097" width="16.0645" height="16.0645" rx="8.03226" fill="#F3F4F6" />
    <rect x="149.428" y="59.2097" width="15.0645" height="15.0645" rx="7.53226" stroke="black" stroke-opacity="0.1" />
    <g clip-path="url(#clip1_7_498)">
        <path
            d="M155.175 64.5108C155.175 64.9842 155.363 65.4382 155.698 65.7729C156.032 66.1077 156.486 66.2957 156.96 66.2957C157.433 66.2957 157.887 66.1077 158.222 65.7729C158.557 65.4382 158.745 64.9842 158.745 64.5108C158.745 64.0374 158.557 63.5834 158.222 63.2486C157.887 62.9139 157.433 62.7258 156.96 62.7258C156.486 62.7258 156.032 62.9139 155.698 63.2486C155.363 63.5834 155.175 64.0374 155.175 64.5108Z"
            stroke="black" stroke-linecap="round" stroke-linejoin="round" />
        <path
            d="M154.282 70.7582V69.8658C154.282 69.3924 154.47 68.9384 154.805 68.6036C155.14 68.2689 155.594 68.0808 156.067 68.0808H157.852C158.326 68.0808 158.78 68.2689 159.114 68.6036C159.449 68.9384 159.637 69.3924 159.637 69.8658V70.7582"
            stroke="black" stroke-linecap="round" stroke-linejoin="round" />
    </g>
    <rect x="100.081" y="66.0725" width="41.5" height="2.00806" rx="1.00403" fill="#D9D9D9" />
    <g filter="url(#filter2_d_7_498)">
        <rect x="63" y="77" width="94.379" height="37.4839" rx="8" fill="white" />
        <rect x="63.5" y="77.5" width="93.379" height="36.4839" rx="7.5" stroke="black" stroke-opacity="0.15" />
    </g>
    <rect x="133.282" y="87.7097" width="16.0645" height="16.0645" rx="8.03226" fill="#F3F4F6" />
    <rect x="133.782" y="88.2097" width="15.0645" height="15.0645" rx="7.53226" stroke="black" stroke-opacity="0.1" />
    <g clip-path="url(#clip2_7_498)">
        <path
            d="M139.529 93.5108C139.529 93.9842 139.717 94.4382 140.052 94.7729C140.387 95.1077 140.841 95.2957 141.314 95.2957C141.788 95.2957 142.242 95.1077 142.576 94.7729C142.911 94.4382 143.099 93.9842 143.099 93.5108C143.099 93.0374 142.911 92.5834 142.576 92.2486C142.242 91.9139 141.788 91.7258 141.314 91.7258C140.841 91.7258 140.387 91.9139 140.052 92.2486C139.717 92.5834 139.529 93.0374 139.529 93.5108Z"
            stroke="black" stroke-linecap="round" stroke-linejoin="round" />
        <path
            d="M138.637 99.7582V98.8658C138.637 98.3924 138.825 97.9384 139.16 97.6036C139.494 97.2689 139.948 97.0808 140.422 97.0808H142.207C142.68 97.0808 143.134 97.2689 143.469 97.6036C143.804 97.9384 143.992 98.3924 143.992 98.8658V99.7582"
            stroke="black" stroke-linecap="round" stroke-linejoin="round" />
    </g>
    <rect x="84.4355" y="95.0725" width="41.5" height="2.00806" rx="1.00403" fill="#D9D9D9" />
    <g filter="url(#filter3_d_7_498)">
        <rect x="49" y="106" width="94.379" height="37.4839" rx="8" fill="white" />
        <rect x="49.5" y="106.5" width="93.379" height="36.4839" rx="7.5" stroke="black" stroke-opacity="0.15" />
    </g>
    <rect x="119.282" y="116.71" width="16.0645" height="16.0645" rx="8.03226" fill="#F3F4F6" />
    <rect x="119.782" y="117.21" width="15.0645" height="15.0645" rx="7.53226" stroke="black" stroke-opacity="0.1" />
    <g clip-path="url(#clip3_7_498)">
        <path
            d="M125.529 122.511C125.529 122.984 125.717 123.438 126.052 123.773C126.387 124.108 126.841 124.296 127.314 124.296C127.788 124.296 128.242 124.108 128.576 123.773C128.911 123.438 129.099 122.984 129.099 122.511C129.099 122.037 128.911 121.583 128.576 121.249C128.242 120.914 127.788 120.726 127.314 120.726C126.841 120.726 126.387 120.914 126.052 121.249C125.717 121.583 125.529 122.037 125.529 122.511Z"
            stroke="black" stroke-linecap="round" stroke-linejoin="round" />
        <path
            d="M124.637 128.758V127.866C124.637 127.392 124.825 126.938 125.16 126.604C125.494 126.269 125.948 126.081 126.422 126.081H128.207C128.68 126.081 129.134 126.269 129.469 126.604C129.804 126.938 129.992 127.392 129.992 127.866V128.758"
            stroke="black" stroke-linecap="round" stroke-linejoin="round" />
    </g>
    <rect x="70.4355" y="124.073" width="41.5" height="2.00806" rx="1.00403" fill="#D9D9D9" />
    <defs>
        <filter id="filter0_d_7_498" x="152" y="74.0483" width="89.0078" height="60.2258" filterUnits="userSpaceOnUse"
            color-interpolation-filters="sRGB">
            <feFlood flood-opacity="0" result="BackgroundImageFix" />
            <feColorMatrix in="SourceAlpha" type="matrix" values="0 0 0 0 0 0 0 0 0 0 0 0 0 0 0 0 0 0 127 0"
                result="hardAlpha" />
            <feOffset dy="2" />
            <feGaussianBlur stdDeviation="1" />
            <feComposite in2="hardAlpha" operator="out" />
            <feColorMatrix type="matrix" values="0 0 0 0 0 0 0 0 0 0 0 0 0 0 0 0 0 0 0.1 0" />
            <feBlend mode="normal" in2="BackgroundImageFix" result="effect1_dropShadow_7_498" />
            <feBlend mode="normal" in="SourceGraphic" in2="effect1_dropShadow_7_498" result="shape" />
        </filter>
        <filter id="filter1_d_7_498" x="76.6455" y="48" width="98.3789" height="41.4839" filterUnits="userSpaceOnUse"
            color-interpolation-filters="sRGB">
            <feFlood flood-opacity="0" result="BackgroundImageFix" />
            <feColorMatrix in="SourceAlpha" type="matrix" values="0 0 0 0 0 0 0 0 0 0 0 0 0 0 0 0 0 0 127 0"
                result="hardAlpha" />
            <feOffset dy="2" />
            <feGaussianBlur stdDeviation="1" />
            <feComposite in2="hardAlpha" operator="out" />
            <feColorMatrix type="matrix" values="0 0 0 0 0 0 0 0 0 0 0 0 0 0 0 0 0 0 0.1 0" />
            <feBlend mode="normal" in2="BackgroundImageFix" result="effect1_dropShadow_7_498" />
            <feBlend mode="normal" in="SourceGraphic" in2="effect1_dropShadow_7_498" result="shape" />
        </filter>
        <filter id="filter2_d_7_498" x="61" y="77" width="98.3789" height="41.4839" filterUnits="userSpaceOnUse"
            color-interpolation-filters="sRGB">
            <feFlood flood-opacity="0" result="BackgroundImageFix" />
            <feColorMatrix in="SourceAlpha" type="matrix" values="0 0 0 0 0 0 0 0 0 0 0 0 0 0 0 0 0 0 127 0"
                result="hardAlpha" />
            <feOffset dy="2" />
            <feGaussianBlur stdDeviation="1" />
            <feComposite in2="hardAlpha" operator="out" />
            <feColorMatrix type="matrix" values="0 0 0 0 0 0 0 0 0 0 0 0 0 0 0 0 0 0 0.1 0" />
            <feBlend mode="normal" in2="BackgroundImageFix" result="effect1_dropShadow_7_498" />
            <feBlend mode="normal" in="SourceGraphic" in2="effect1_dropShadow_7_498" result="shape" />
        </filter>
        <filter id="filter3_d_7_498" x="47" y="106" width="98.3789" height="41.4839" filterUnits="userSpaceOnUse"
            color-interpolation-filters="sRGB">
            <feFlood flood-opacity="0" result="BackgroundImageFix" />
            <feColorMatrix in="SourceAlpha" type="matrix" values="0 0 0 0 0 0 0 0 0 0 0 0 0 0 0 0 0 0 127 0"
                result="hardAlpha" />
            <feOffset dy="2" />
            <feGaussianBlur stdDeviation="1" />
            <feComposite in2="hardAlpha" operator="out" />
            <feColorMatrix type="matrix" values="0 0 0 0 0 0 0 0 0 0 0 0 0 0 0 0 0 0 0.1 0" />
            <feBlend mode="normal" in2="BackgroundImageFix" result="effect1_dropShadow_7_498" />
            <feBlend mode="normal" in="SourceGraphic" in2="effect1_dropShadow_7_498" result="shape" />
        </filter>
        <clipPath id="clip0_7_498">
            <rect width="16.0645" height="16.0645" fill="white" transform="translate(212.903 66.0161)" />
        </clipPath>
        <clipPath id="clip1_7_498">
            <rect width="10.7097" height="10.7097" fill="white" transform="translate(151.604 61.3872)" />
        </clipPath>
        <clipPath id="clip2_7_498">
            <rect width="10.7097" height="10.7097" fill="white" transform="translate(135.959 90.3872)" />
        </clipPath>
        <clipPath id="clip3_7_498">
            <rect width="10.7097" height="10.7097" fill="white" transform="translate(121.959 119.387)" />
        </clipPath>
    </defs>
</svg>